ISO-10303-21;
HEADER;
/* Generated by software containing ST-Developer
 * from STEP Tools, Inc. (www.steptools.com) 
 */

FILE_DESCRIPTION(
/* description */ ('FreeCAD Model'),
/* implementation_level */ '2;1');

FILE_NAME(
/* name */ 'VIGA_FEM.step',
/* time_stamp */ '2026-09-29T23:32:40-05:00',
/* author */ (''),
/* organization */ (''),
/* preprocessor_version */ 'ST-DEVELOPER v20.1',
/* originating_system */ 'Autodesk Translation Framework v15.8.0.0',
/* authorisation */ '');

FILE_SCHEMA (('AUTOMOTIVE_DESIGN { 1 0 10303 214 3 1 1 }'));
ENDSEC;

DATA;
#10=MECHANICAL_DESIGN_GEOMETRIC_PRESENTATION_REPRESENTATION('',(#71,#72,
#73,#74,#75,#76,#77),#1571);
#11=ITEM_DEFINED_TRANSFORMATION($,$,#970,#1048);
#12=ITEM_DEFINED_TRANSFORMATION($,$,#1011,#1049);
#13=ITEM_DEFINED_TRANSFORMATION($,$,#1021,#1050);
#14=ITEM_DEFINED_TRANSFORMATION($,$,#1030,#1051);
#15=ITEM_DEFINED_TRANSFORMATION($,$,#1039,#1052);
#16=(
REPRESENTATION_RELATIONSHIP($,$,#1594,#1593)
REPRESENTATION_RELATIONSHIP_WITH_TRANSFORMATION(#11)
SHAPE_REPRESENTATION_RELATIONSHIP()
);
#17=(
REPRESENTATION_RELATIONSHIP($,$,#1595,#1593)
REPRESENTATION_RELATIONSHIP_WITH_TRANSFORMATION(#12)
SHAPE_REPRESENTATION_RELATIONSHIP()
);
#18=(
REPRESENTATION_RELATIONSHIP($,$,#1596,#1593)
REPRESENTATION_RELATIONSHIP_WITH_TRANSFORMATION(#13)
SHAPE_REPRESENTATION_RELATIONSHIP()
);
#19=(
REPRESENTATION_RELATIONSHIP($,$,#1597,#1593)
REPRESENTATION_RELATIONSHIP_WITH_TRANSFORMATION(#14)
SHAPE_REPRESENTATION_RELATIONSHIP()
);
#20=(
REPRESENTATION_RELATIONSHIP($,$,#1598,#1593)
REPRESENTATION_RELATIONSHIP_WITH_TRANSFORMATION(#15)
SHAPE_REPRESENTATION_RELATIONSHIP()
);
#21=CONTEXT_DEPENDENT_SHAPE_REPRESENTATION(#16,#1588);
#22=CONTEXT_DEPENDENT_SHAPE_REPRESENTATION(#17,#1589);
#23=CONTEXT_DEPENDENT_SHAPE_REPRESENTATION(#18,#1590);
#24=CONTEXT_DEPENDENT_SHAPE_REPRESENTATION(#19,#1591);
#25=CONTEXT_DEPENDENT_SHAPE_REPRESENTATION(#20,#1592);
#26=NEXT_ASSEMBLY_USAGE_OCCURRENCE(
'Viga y galga - geometria original intacta:1',
'Viga y galga - geometria original intacta:1',
'Viga y galga - geometria original intacta:1',#1600,#1601,
'Viga y galga - geometria original intacta:1');
#27=NEXT_ASSEMBLY_USAGE_OCCURRENCE('Tornillo:1','Tornillo:1',
'Tornillo:1',#1600,#1602,'Tornillo:1');
#28=NEXT_ASSEMBLY_USAGE_OCCURRENCE('Arandela_lado_cuerda:1',
'Arandela_lado_cuerda:1','Arandela_lado_cuerda:1',#1600,#1603,
'Arandela_lado_cuerda:1');
#29=NEXT_ASSEMBLY_USAGE_OCCURRENCE('Arandela_opuesta:1',
'Arandela_opuesta:1','Arandela_opuesta:1',#1600,#1604,
'Arandela_opuesta:1');
#30=NEXT_ASSEMBLY_USAGE_OCCURRENCE('Tuerca_cierre_idealizada:1',
'Tuerca_cierre_idealizada:1','Tuerca_cierre_idealizada:1',#1600,#1605,
'Tuerca_cierre_idealizada:1');
#31=SHAPE_REPRESENTATION_RELATIONSHIP('SRR','None',#1594,#36);
#32=SHAPE_REPRESENTATION_RELATIONSHIP('SRR','None',#1595,#37);
#33=SHAPE_REPRESENTATION_RELATIONSHIP('SRR','None',#1596,#38);
#34=SHAPE_REPRESENTATION_RELATIONSHIP('SRR','None',#1597,#39);
#35=SHAPE_REPRESENTATION_RELATIONSHIP('SRR','None',#1598,#40);
#36=ADVANCED_BREP_SHAPE_REPRESENTATION('',(#78,#79,#80),#1566);
#37=ADVANCED_BREP_SHAPE_REPRESENTATION('',(#81),#1567);
#38=ADVANCED_BREP_SHAPE_REPRESENTATION('',(#82),#1568);
#39=ADVANCED_BREP_SHAPE_REPRESENTATION('',(#83),#1569);
#40=ADVANCED_BREP_SHAPE_REPRESENTATION('',(#84),#1570);
#41=CIRCLE('',#995,4.000000059605);
#42=CIRCLE('',#996,4.000000059605);
#43=CIRCLE('',#998,4.000000059605);
#44=CIRCLE('',#999,4.000000059605);
#45=CIRCLE('',#1013,4.);
#46=CIRCLE('',#1014,4.);
#47=CIRCLE('',#1016,6.5);
#48=CIRCLE('',#1019,6.5);
#49=CIRCLE('',#1023,8.);
#50=CIRCLE('',#1024,8.);
#51=CIRCLE('',#1026,4.2);
#52=CIRCLE('',#1028,4.2);
#53=CIRCLE('',#1032,8.);
#54=CIRCLE('',#1033,8.);
#55=CIRCLE('',#1035,4.2);
#56=CIRCLE('',#1037,4.2);
#57=CIRCLE('',#1041,6.5);
#58=CIRCLE('',#1042,6.5);
#59=CIRCLE('',#1044,4.);
#60=CIRCLE('',#1046,4.);
#61=CYLINDRICAL_SURFACE('',#994,4.000000059605);
#62=CYLINDRICAL_SURFACE('',#997,4.000000059605);
#63=CYLINDRICAL_SURFACE('',#1012,4.);
#64=CYLINDRICAL_SURFACE('',#1018,6.5);
#65=CYLINDRICAL_SURFACE('',#1022,8.);
#66=CYLINDRICAL_SURFACE('',#1029,4.2);
#67=CYLINDRICAL_SURFACE('',#1031,8.);
#68=CYLINDRICAL_SURFACE('',#1038,4.2);
#69=CYLINDRICAL_SURFACE('',#1040,6.5);
#70=CYLINDRICAL_SURFACE('',#1047,4.);
#71=STYLED_ITEM('',(#1627),#78);
#72=STYLED_ITEM('',(#1627),#79);
#73=STYLED_ITEM('',(#1627),#80);
#74=STYLED_ITEM('',(#1627),#81);
#75=STYLED_ITEM('',(#1627),#82);
#76=STYLED_ITEM('',(#1627),#83);
#77=STYLED_ITEM('',(#1627),#84);
#78=MANIFOLD_SOLID_BREP('Cuerpo1',#906);
#79=MANIFOLD_SOLID_BREP('Cuerpo2',#907);
#80=MANIFOLD_SOLID_BREP('Cuerpo3',#908);
#81=MANIFOLD_SOLID_BREP('Cuerpo1',#909);
#82=MANIFOLD_SOLID_BREP('Cuerpo1',#910);
#83=MANIFOLD_SOLID_BREP('Cuerpo1',#911);
#84=MANIFOLD_SOLID_BREP('Cuerpo1',#912);
#85=FACE_BOUND('',#165,.T.);
#86=FACE_BOUND('',#167,.T.);
#87=FACE_BOUND('',#169,.T.);
#88=FACE_BOUND('',#179,.T.);
#89=FACE_BOUND('',#187,.T.);
#90=FACE_BOUND('',#189,.T.);
#91=FACE_BOUND('',#192,.T.);
#92=FACE_BOUND('',#194,.T.);
#93=FACE_BOUND('',#196,.T.);
#94=FACE_BOUND('',#199,.T.);
#95=FACE_BOUND('',#202,.T.);
#96=FACE_BOUND('',#205,.T.);
#97=FACE_BOUND('',#211,.T.);
#98=FACE_BOUND('',#213,.T.);
#99=FACE_BOUND('',#217,.T.);
#100=FACE_BOUND('',#219,.T.);
#101=FACE_BOUND('',#223,.T.);
#102=FACE_BOUND('',#225,.T.);
#103=FACE_OUTER_BOUND('',#156,.T.);
#104=FACE_OUTER_BOUND('',#157,.T.);
#105=FACE_OUTER_BOUND('',#158,.T.);
#106=FACE_OUTER_BOUND('',#159,.T.);
#107=FACE_OUTER_BOUND('',#160,.T.);
#108=FACE_OUTER_BOUND('',#161,.T.);
#109=FACE_OUTER_BOUND('',#162,.T.);
#110=FACE_OUTER_BOUND('',#163,.T.);
#111=FACE_OUTER_BOUND('',#164,.T.);
#112=FACE_OUTER_BOUND('',#166,.T.);
#113=FACE_OUTER_BOUND('',#168,.T.);
#114=FACE_OUTER_BOUND('',#170,.T.);
#115=FACE_OUTER_BOUND('',#171,.T.);
#116=FACE_OUTER_BOUND('',#172,.T.);
#117=FACE_OUTER_BOUND('',#173,.T.);
#118=FACE_OUTER_BOUND('',#174,.T.);
#119=FACE_OUTER_BOUND('',#175,.T.);
#120=FACE_OUTER_BOUND('',#176,.T.);
#121=FACE_OUTER_BOUND('',#177,.T.);
#122=FACE_OUTER_BOUND('',#178,.T.);
#123=FACE_OUTER_BOUND('',#180,.T.);
#124=FACE_OUTER_BOUND('',#181,.T.);
#125=FACE_OUTER_BOUND('',#182,.T.);
#126=FACE_OUTER_BOUND('',#183,.T.);
#127=FACE_OUTER_BOUND('',#184,.T.);
#128=FACE_OUTER_BOUND('',#185,.T.);
#129=FACE_OUTER_BOUND('',#186,.T.);
#130=FACE_OUTER_BOUND('',#188,.T.);
#131=FACE_OUTER_BOUND('',#190,.T.);
#132=FACE_OUTER_BOUND('',#191,.T.);
#133=FACE_OUTER_BOUND('',#193,.T.);
#134=FACE_OUTER_BOUND('',#195,.T.);
#135=FACE_OUTER_BOUND('',#197,.T.);
#136=FACE_OUTER_BOUND('',#198,.T.);
#137=FACE_OUTER_BOUND('',#200,.T.);
#138=FACE_OUTER_BOUND('',#201,.T.);
#139=FACE_OUTER_BOUND('',#203,.T.);
#140=FACE_OUTER_BOUND('',#204,.T.);
#141=FACE_OUTER_BOUND('',#206,.T.);
#142=FACE_OUTER_BOUND('',#207,.T.);
#143=FACE_OUTER_BOUND('',#208,.T.);
#144=FACE_OUTER_BOUND('',#209,.T.);
#145=FACE_OUTER_BOUND('',#210,.T.);
#146=FACE_OUTER_BOUND('',#212,.T.);
#147=FACE_OUTER_BOUND('',#214,.T.);
#148=FACE_OUTER_BOUND('',#215,.T.);
#149=FACE_OUTER_BOUND('',#216,.T.);
#150=FACE_OUTER_BOUND('',#218,.T.);
#151=FACE_OUTER_BOUND('',#220,.T.);
#152=FACE_OUTER_BOUND('',#221,.T.);
#153=FACE_OUTER_BOUND('',#222,.T.);
#154=FACE_OUTER_BOUND('',#224,.T.);
#155=FACE_OUTER_BOUND('',#226,.T.);
#156=EDGE_LOOP('',(#590,#591,#592,#593));
#157=EDGE_LOOP('',(#594,#595,#596,#597));
#158=EDGE_LOOP('',(#598,#599,#600,#601));
#159=EDGE_LOOP('',(#602,#603,#604,#605));
#160=EDGE_LOOP('',(#606,#607,#608,#609));
#161=EDGE_LOOP('',(#610,#611,#612,#613));
#162=EDGE_LOOP('',(#614,#615,#616,#617));
#163=EDGE_LOOP('',(#618,#619,#620,#621));
#164=EDGE_LOOP('',(#622,#623,#624,#625));
#165=EDGE_LOOP('',(#626,#627,#628,#629));
#166=EDGE_LOOP('',(#630,#631,#632,#633));
#167=EDGE_LOOP('',(#634,#635,#636,#637));
#168=EDGE_LOOP('',(#638,#639,#640,#641));
#169=EDGE_LOOP('',(#642,#643,#644,#645));
#170=EDGE_LOOP('',(#646,#647,#648,#649));
#171=EDGE_LOOP('',(#650,#651,#652,#653));
#172=EDGE_LOOP('',(#654,#655,#656,#657));
#173=EDGE_LOOP('',(#658,#659,#660,#661));
#174=EDGE_LOOP('',(#662,#663,#664,#665));
#175=EDGE_LOOP('',(#666,#667,#668,#669));
#176=EDGE_LOOP('',(#670,#671,#672,#673));
#177=EDGE_LOOP('',(#674,#675,#676,#677));
#178=EDGE_LOOP('',(#678,#679,#680,#681));
#179=EDGE_LOOP('',(#682,#683,#684,#685));
#180=EDGE_LOOP('',(#686,#687,#688));
#181=EDGE_LOOP('',(#689,#690,#691));
#182=EDGE_LOOP('',(#692,#693,#694));
#183=EDGE_LOOP('',(#695,#696,#697,#698));
#184=EDGE_LOOP('',(#699,#700,#701,#702));
#185=EDGE_LOOP('',(#703,#704,#705));
#186=EDGE_LOOP('',(#706,#707,#708,#709));
#187=EDGE_LOOP('',(#710,#711,#712,#713));
#188=EDGE_LOOP('',(#714,#715,#716,#717));
#189=EDGE_LOOP('',(#718));
#190=EDGE_LOOP('',(#719,#720,#721,#722));
#191=EDGE_LOOP('',(#723,#724,#725,#726));
#192=EDGE_LOOP('',(#727,#728,#729,#730));
#193=EDGE_LOOP('',(#731,#732,#733,#734));
#194=EDGE_LOOP('',(#735));
#195=EDGE_LOOP('',(#736,#737,#738,#739));
#196=EDGE_LOOP('',(#740));
#197=EDGE_LOOP('',(#741,#742,#743,#744));
#198=EDGE_LOOP('',(#745,#746,#747,#748));
#199=EDGE_LOOP('',(#749,#750,#751,#752));
#200=EDGE_LOOP('',(#753,#754,#755,#756));
#201=EDGE_LOOP('',(#757,#758,#759,#760));
#202=EDGE_LOOP('',(#761));
#203=EDGE_LOOP('',(#762,#763,#764,#765));
#204=EDGE_LOOP('',(#766));
#205=EDGE_LOOP('',(#767));
#206=EDGE_LOOP('',(#768));
#207=EDGE_LOOP('',(#769,#770,#771,#772));
#208=EDGE_LOOP('',(#773));
#209=EDGE_LOOP('',(#774,#775,#776,#777));
#210=EDGE_LOOP('',(#778));
#211=EDGE_LOOP('',(#779));
#212=EDGE_LOOP('',(#780));
#213=EDGE_LOOP('',(#781));
#214=EDGE_LOOP('',(#782,#783,#784,#785));
#215=EDGE_LOOP('',(#786,#787,#788,#789));
#216=EDGE_LOOP('',(#790));
#217=EDGE_LOOP('',(#791));
#218=EDGE_LOOP('',(#792));
#219=EDGE_LOOP('',(#793));
#220=EDGE_LOOP('',(#794,#795,#796,#797));
#221=EDGE_LOOP('',(#798,#799,#800,#801));
#222=EDGE_LOOP('',(#802));
#223=EDGE_LOOP('',(#803));
#224=EDGE_LOOP('',(#804));
#225=EDGE_LOOP('',(#805));
#226=EDGE_LOOP('',(#806,#807,#808,#809));
#227=LINE('',#1316,#317);
#228=LINE('',#1318,#318);
#229=LINE('',#1320,#319);
#230=LINE('',#1321,#320);
#231=LINE('',#1324,#321);
#232=LINE('',#1326,#322);
#233=LINE('',#1327,#323);
#234=LINE('',#1331,#324);
#235=LINE('',#1333,#325);
#236=LINE('',#1335,#326);
#237=LINE('',#1336,#327);
#238=LINE('',#1339,#328);
#239=LINE('',#1341,#329);
#240=LINE('',#1342,#330);
#241=LINE('',#1344,#331);
#242=LINE('',#1345,#332);
#243=LINE('',#1348,#333);
#244=LINE('',#1350,#334);
#245=LINE('',#1351,#335);
#246=LINE('',#1354,#336);
#247=LINE('',#1356,#337);
#248=LINE('',#1357,#338);
#249=LINE('',#1359,#339);
#250=LINE('',#1360,#340);
#251=LINE('',#1366,#341);
#252=LINE('',#1368,#342);
#253=LINE('',#1370,#343);
#254=LINE('',#1371,#344);
#255=LINE('',#1374,#345);
#256=LINE('',#1376,#346);
#257=LINE('',#1378,#347);
#258=LINE('',#1379,#348);
#259=LINE('',#1382,#349);
#260=LINE('',#1384,#350);
#261=LINE('',#1385,#351);
#262=LINE('',#1388,#352);
#263=LINE('',#1390,#353);
#264=LINE('',#1391,#354);
#265=LINE('',#1394,#355);
#266=LINE('',#1395,#356);
#267=LINE('',#1398,#357);
#268=LINE('',#1399,#358);
#269=LINE('',#1401,#359);
#270=LINE('',#1404,#360);
#271=LINE('',#1405,#361);
#272=LINE('',#1408,#362);
#273=LINE('',#1409,#363);
#274=LINE('',#1411,#364);
#275=LINE('',#1416,#365);
#276=LINE('',#1418,#366);
#277=LINE('',#1419,#367);
#278=LINE('',#1422,#368);
#279=LINE('',#1424,#369);
#280=LINE('',#1425,#370);
#281=LINE('',#1427,#371);
#282=LINE('',#1432,#372);
#283=LINE('',#1438,#373);
#284=LINE('',#1441,#374);
#285=LINE('',#1445,#375);
#286=LINE('',#1447,#376);
#287=LINE('',#1449,#377);
#288=LINE('',#1450,#378);
#289=LINE('',#1453,#379);
#290=LINE('',#1455,#380);
#291=LINE('',#1457,#381);
#292=LINE('',#1458,#382);
#293=LINE('',#1461,#383);
#294=LINE('',#1463,#384);
#295=LINE('',#1464,#385);
#296=LINE('',#1467,#386);
#297=LINE('',#1468,#387);
#298=LINE('',#1471,#388);
#299=LINE('',#1472,#389);
#300=LINE('',#1474,#390);
#301=LINE('',#1477,#391);
#302=LINE('',#1479,#392);
#303=LINE('',#1480,#393);
#304=LINE('',#1483,#394);
#305=LINE('',#1484,#395);
#306=LINE('',#1487,#396);
#307=LINE('',#1488,#397);
#308=LINE('',#1490,#398);
#309=LINE('',#1497,#399);
#310=LINE('',#1506,#400);
#311=LINE('',#1513,#401);
#312=LINE('',#1522,#402);
#313=LINE('',#1528,#403);
#314=LINE('',#1537,#404);
#315=LINE('',#1543,#405);
#316=LINE('',#1552,#406);
#317=VECTOR('',#1059,1.);
#318=VECTOR('',#1060,1.);
#319=VECTOR('',#1061,1.);
#320=VECTOR('',#1062,1.);
#321=VECTOR('',#1065,1.);
#322=VECTOR('',#1066,1.);
#323=VECTOR('',#1067,1.);
#324=VECTOR('',#1070,1.);
#325=VECTOR('',#1071,1.);
#326=VECTOR('',#1072,1.);
#327=VECTOR('',#1073,1.);
#328=VECTOR('',#1076,1.);
#329=VECTOR('',#1077,1.);
#330=VECTOR('',#1078,1.);
#331=VECTOR('',#1081,1.);
#332=VECTOR('',#1082,1.);
#333=VECTOR('',#1085,1.);
#334=VECTOR('',#1086,1.);
#335=VECTOR('',#1087,1.);
#336=VECTOR('',#1090,1.);
#337=VECTOR('',#1091,1.);
#338=VECTOR('',#1092,1.);
#339=VECTOR('',#1095,1.);
#340=VECTOR('',#1096,1.);
#341=VECTOR('',#1103,1.);
#342=VECTOR('',#1104,1.);
#343=VECTOR('',#1105,1.);
#344=VECTOR('',#1106,1.);
#345=VECTOR('',#1107,1.);
#346=VECTOR('',#1108,1.);
#347=VECTOR('',#1109,1.);
#348=VECTOR('',#1110,1.);
#349=VECTOR('',#1113,1.);
#350=VECTOR('',#1114,1.);
#351=VECTOR('',#1115,1.);
#352=VECTOR('',#1118,1.);
#353=VECTOR('',#1119,1.);
#354=VECTOR('',#1120,1.);
#355=VECTOR('',#1123,1.);
#356=VECTOR('',#1124,1.);
#357=VECTOR('',#1127,1.);
#358=VECTOR('',#1128,1.);
#359=VECTOR('',#1131,1.);
#360=VECTOR('',#1134,1.);
#361=VECTOR('',#1135,1.);
#362=VECTOR('',#1138,1.);
#363=VECTOR('',#1139,1.);
#364=VECTOR('',#1142,1.);
#365=VECTOR('',#1147,10.);
#366=VECTOR('',#1148,10.);
#367=VECTOR('',#1149,1.);
#368=VECTOR('',#1152,10.);
#369=VECTOR('',#1153,10.);
#370=VECTOR('',#1154,1.);
#371=VECTOR('',#1157,1.);
#372=VECTOR('',#1162,4.000000059605);
#373=VECTOR('',#1169,4.000000059605);
#374=VECTOR('',#1174,1.);
#375=VECTOR('',#1177,1.);
#376=VECTOR('',#1178,1.);
#377=VECTOR('',#1179,1.);
#378=VECTOR('',#1180,1.);
#379=VECTOR('',#1181,1.);
#380=VECTOR('',#1182,1.);
#381=VECTOR('',#1183,1.);
#382=VECTOR('',#1184,1.);
#383=VECTOR('',#1187,1.);
#384=VECTOR('',#1188,1.);
#385=VECTOR('',#1189,1.);
#386=VECTOR('',#1192,1.);
#387=VECTOR('',#1193,1.);
#388=VECTOR('',#1196,1.);
#389=VECTOR('',#1197,1.);
#390=VECTOR('',#1200,1.);
#391=VECTOR('',#1203,1.);
#392=VECTOR('',#1204,1.);
#393=VECTOR('',#1205,1.);
#394=VECTOR('',#1208,1.);
#395=VECTOR('',#1209,1.);
#396=VECTOR('',#1212,1.);
#397=VECTOR('',#1213,1.);
#398=VECTOR('',#1216,1.);
#399=VECTOR('',#1225,4.);
#400=VECTOR('',#1238,6.5);
#401=VECTOR('',#1247,8.);
#402=VECTOR('',#1260,4.2);
#403=VECTOR('',#1267,8.);
#404=VECTOR('',#1280,4.2);
#405=VECTOR('',#1287,6.5);
#406=VECTOR('',#1300,4.);
#407=VERTEX_POINT('',#1314);
#408=VERTEX_POINT('',#1315);
#409=VERTEX_POINT('',#1317);
#410=VERTEX_POINT('',#1319);
#411=VERTEX_POINT('',#1323);
#412=VERTEX_POINT('',#1325);
#413=VERTEX_POINT('',#1329);
#414=VERTEX_POINT('',#1330);
#415=VERTEX_POINT('',#1332);
#416=VERTEX_POINT('',#1334);
#417=VERTEX_POINT('',#1338);
#418=VERTEX_POINT('',#1340);
#419=VERTEX_POINT('',#1347);
#420=VERTEX_POINT('',#1349);
#421=VERTEX_POINT('',#1353);
#422=VERTEX_POINT('',#1355);
#423=VERTEX_POINT('',#1364);
#424=VERTEX_POINT('',#1365);
#425=VERTEX_POINT('',#1367);
#426=VERTEX_POINT('',#1369);
#427=VERTEX_POINT('',#1372);
#428=VERTEX_POINT('',#1373);
#429=VERTEX_POINT('',#1375);
#430=VERTEX_POINT('',#1377);
#431=VERTEX_POINT('',#1381);
#432=VERTEX_POINT('',#1383);
#433=VERTEX_POINT('',#1387);
#434=VERTEX_POINT('',#1389);
#435=VERTEX_POINT('',#1393);
#436=VERTEX_POINT('',#1397);
#437=VERTEX_POINT('',#1403);
#438=VERTEX_POINT('',#1407);
#439=VERTEX_POINT('',#1414);
#440=VERTEX_POINT('',#1415);
#441=VERTEX_POINT('',#1417);
#442=VERTEX_POINT('',#1421);
#443=VERTEX_POINT('',#1423);
#444=VERTEX_POINT('',#1429);
#445=VERTEX_POINT('',#1431);
#446=VERTEX_POINT('',#1435);
#447=VERTEX_POINT('',#1437);
#448=VERTEX_POINT('',#1443);
#449=VERTEX_POINT('',#1444);
#450=VERTEX_POINT('',#1446);
#451=VERTEX_POINT('',#1448);
#452=VERTEX_POINT('',#1451);
#453=VERTEX_POINT('',#1452);
#454=VERTEX_POINT('',#1454);
#455=VERTEX_POINT('',#1456);
#456=VERTEX_POINT('',#1460);
#457=VERTEX_POINT('',#1462);
#458=VERTEX_POINT('',#1466);
#459=VERTEX_POINT('',#1470);
#460=VERTEX_POINT('',#1476);
#461=VERTEX_POINT('',#1478);
#462=VERTEX_POINT('',#1482);
#463=VERTEX_POINT('',#1486);
#464=VERTEX_POINT('',#1494);
#465=VERTEX_POINT('',#1496);
#466=VERTEX_POINT('',#1500);
#467=VERTEX_POINT('',#1504);
#468=VERTEX_POINT('',#1510);
#469=VERTEX_POINT('',#1512);
#470=VERTEX_POINT('',#1516);
#471=VERTEX_POINT('',#1519);
#472=VERTEX_POINT('',#1525);
#473=VERTEX_POINT('',#1527);
#474=VERTEX_POINT('',#1531);
#475=VERTEX_POINT('',#1534);
#476=VERTEX_POINT('',#1540);
#477=VERTEX_POINT('',#1542);
#478=VERTEX_POINT('',#1546);
#479=VERTEX_POINT('',#1549);
#480=EDGE_CURVE('',#407,#408,#227,.T.);
#481=EDGE_CURVE('',#407,#409,#228,.T.);
#482=EDGE_CURVE('',#410,#409,#229,.T.);
#483=EDGE_CURVE('',#408,#410,#230,.T.);
#484=EDGE_CURVE('',#411,#407,#231,.T.);
#485=EDGE_CURVE('',#411,#412,#232,.T.);
#486=EDGE_CURVE('',#409,#412,#233,.T.);
#487=EDGE_CURVE('',#413,#414,#234,.T.);
#488=EDGE_CURVE('',#415,#413,#235,.T.);
#489=EDGE_CURVE('',#416,#415,#236,.T.);
#490=EDGE_CURVE('',#416,#414,#237,.T.);
#491=EDGE_CURVE('',#408,#417,#238,.T.);
#492=EDGE_CURVE('',#418,#410,#239,.T.);
#493=EDGE_CURVE('',#417,#418,#240,.T.);
#494=EDGE_CURVE('',#417,#411,#241,.T.);
#495=EDGE_CURVE('',#412,#418,#242,.T.);
#496=EDGE_CURVE('',#414,#419,#243,.T.);
#497=EDGE_CURVE('',#420,#416,#244,.T.);
#498=EDGE_CURVE('',#420,#419,#245,.T.);
#499=EDGE_CURVE('',#419,#421,#246,.T.);
#500=EDGE_CURVE('',#422,#420,#247,.T.);
#501=EDGE_CURVE('',#422,#421,#248,.T.);
#502=EDGE_CURVE('',#421,#413,#249,.T.);
#503=EDGE_CURVE('',#415,#422,#250,.T.);
#504=EDGE_CURVE('',#423,#424,#251,.T.);
#505=EDGE_CURVE('',#425,#423,#252,.T.);
#506=EDGE_CURVE('',#426,#425,#253,.T.);
#507=EDGE_CURVE('',#424,#426,#254,.T.);
#508=EDGE_CURVE('',#427,#428,#255,.T.);
#509=EDGE_CURVE('',#429,#427,#256,.T.);
#510=EDGE_CURVE('',#430,#429,#257,.T.);
#511=EDGE_CURVE('',#428,#430,#258,.T.);
#512=EDGE_CURVE('',#424,#431,#259,.T.);
#513=EDGE_CURVE('',#431,#432,#260,.T.);
#514=EDGE_CURVE('',#423,#432,#261,.T.);
#515=EDGE_CURVE('',#430,#433,#262,.T.);
#516=EDGE_CURVE('',#433,#434,#263,.T.);
#517=EDGE_CURVE('',#428,#434,#264,.T.);
#518=EDGE_CURVE('',#429,#435,#265,.T.);
#519=EDGE_CURVE('',#435,#433,#266,.T.);
#520=EDGE_CURVE('',#427,#436,#267,.T.);
#521=EDGE_CURVE('',#436,#435,#268,.T.);
#522=EDGE_CURVE('',#434,#436,#269,.T.);
#523=EDGE_CURVE('',#426,#437,#270,.T.);
#524=EDGE_CURVE('',#437,#431,#271,.T.);
#525=EDGE_CURVE('',#432,#438,#272,.T.);
#526=EDGE_CURVE('',#425,#438,#273,.T.);
#527=EDGE_CURVE('',#438,#437,#274,.T.);
#528=EDGE_CURVE('',#439,#440,#275,.T.);
#529=EDGE_CURVE('',#441,#440,#276,.T.);
#530=EDGE_CURVE('',#439,#441,#277,.T.);
#531=EDGE_CURVE('',#440,#442,#278,.T.);
#532=EDGE_CURVE('',#440,#443,#279,.T.);
#533=EDGE_CURVE('',#442,#443,#280,.T.);
#534=EDGE_CURVE('',#443,#439,#281,.T.);
#535=EDGE_CURVE('',#444,#444,#41,.T.);
#536=EDGE_CURVE('',#444,#445,#282,.T.);
#537=EDGE_CURVE('',#445,#445,#42,.T.);
#538=EDGE_CURVE('',#446,#446,#43,.T.);
#539=EDGE_CURVE('',#446,#447,#283,.T.);
#540=EDGE_CURVE('',#447,#447,#44,.T.);
#541=EDGE_CURVE('',#441,#442,#284,.T.);
#542=EDGE_CURVE('',#448,#449,#285,.T.);
#543=EDGE_CURVE('',#450,#448,#286,.T.);
#544=EDGE_CURVE('',#451,#450,#287,.T.);
#545=EDGE_CURVE('',#449,#451,#288,.T.);
#546=EDGE_CURVE('',#452,#453,#289,.T.);
#547=EDGE_CURVE('',#454,#452,#290,.T.);
#548=EDGE_CURVE('',#455,#454,#291,.T.);
#549=EDGE_CURVE('',#453,#455,#292,.T.);
#550=EDGE_CURVE('',#456,#451,#293,.T.);
#551=EDGE_CURVE('',#457,#456,#294,.T.);
#552=EDGE_CURVE('',#457,#449,#295,.T.);
#553=EDGE_CURVE('',#458,#457,#296,.T.);
#554=EDGE_CURVE('',#458,#448,#297,.T.);
#555=EDGE_CURVE('',#459,#450,#298,.T.);
#556=EDGE_CURVE('',#456,#459,#299,.T.);
#557=EDGE_CURVE('',#459,#458,#300,.T.);
#558=EDGE_CURVE('',#460,#452,#301,.T.);
#559=EDGE_CURVE('',#461,#460,#302,.T.);
#560=EDGE_CURVE('',#461,#454,#303,.T.);
#561=EDGE_CURVE('',#462,#461,#304,.T.);
#562=EDGE_CURVE('',#462,#455,#305,.T.);
#563=EDGE_CURVE('',#460,#463,#306,.T.);
#564=EDGE_CURVE('',#463,#462,#307,.T.);
#565=EDGE_CURVE('',#463,#453,#308,.T.);
#566=EDGE_CURVE('',#464,#464,#45,.T.);
#567=EDGE_CURVE('',#464,#465,#309,.T.);
#568=EDGE_CURVE('',#465,#465,#46,.T.);
#569=EDGE_CURVE('',#466,#466,#47,.T.);
#570=EDGE_CURVE('',#467,#467,#48,.T.);
#571=EDGE_CURVE('',#467,#466,#310,.T.);
#572=EDGE_CURVE('',#468,#468,#49,.T.);
#573=EDGE_CURVE('',#468,#469,#311,.T.);
#574=EDGE_CURVE('',#469,#469,#50,.T.);
#575=EDGE_CURVE('',#470,#470,#51,.T.);
#576=EDGE_CURVE('',#471,#471,#52,.T.);
#577=EDGE_CURVE('',#471,#470,#312,.T.);
#578=EDGE_CURVE('',#472,#472,#53,.T.);
#579=EDGE_CURVE('',#472,#473,#313,.T.);
#580=EDGE_CURVE('',#473,#473,#54,.T.);
#581=EDGE_CURVE('',#474,#474,#55,.T.);
#582=EDGE_CURVE('',#475,#475,#56,.T.);
#583=EDGE_CURVE('',#475,#474,#314,.T.);
#584=EDGE_CURVE('',#476,#476,#57,.T.);
#585=EDGE_CURVE('',#476,#477,#315,.T.);
#586=EDGE_CURVE('',#477,#477,#58,.T.);
#587=EDGE_CURVE('',#478,#478,#59,.T.);
#588=EDGE_CURVE('',#479,#479,#60,.T.);
#589=EDGE_CURVE('',#479,#478,#316,.T.);
#590=ORIENTED_EDGE('',*,*,#480,.F.);
#591=ORIENTED_EDGE('',*,*,#481,.T.);
#592=ORIENTED_EDGE('',*,*,#482,.F.);
#593=ORIENTED_EDGE('',*,*,#483,.F.);
#594=ORIENTED_EDGE('',*,*,#484,.F.);
#595=ORIENTED_EDGE('',*,*,#485,.T.);
#596=ORIENTED_EDGE('',*,*,#486,.F.);
#597=ORIENTED_EDGE('',*,*,#481,.F.);
#598=ORIENTED_EDGE('',*,*,#487,.F.);
#599=ORIENTED_EDGE('',*,*,#488,.F.);
#600=ORIENTED_EDGE('',*,*,#489,.F.);
#601=ORIENTED_EDGE('',*,*,#490,.T.);
#602=ORIENTED_EDGE('',*,*,#491,.F.);
#603=ORIENTED_EDGE('',*,*,#483,.T.);
#604=ORIENTED_EDGE('',*,*,#492,.F.);
#605=ORIENTED_EDGE('',*,*,#493,.F.);
#606=ORIENTED_EDGE('',*,*,#494,.F.);
#607=ORIENTED_EDGE('',*,*,#493,.T.);
#608=ORIENTED_EDGE('',*,*,#495,.F.);
#609=ORIENTED_EDGE('',*,*,#485,.F.);
#610=ORIENTED_EDGE('',*,*,#496,.F.);
#611=ORIENTED_EDGE('',*,*,#490,.F.);
#612=ORIENTED_EDGE('',*,*,#497,.F.);
#613=ORIENTED_EDGE('',*,*,#498,.T.);
#614=ORIENTED_EDGE('',*,*,#499,.F.);
#615=ORIENTED_EDGE('',*,*,#498,.F.);
#616=ORIENTED_EDGE('',*,*,#500,.F.);
#617=ORIENTED_EDGE('',*,*,#501,.T.);
#618=ORIENTED_EDGE('',*,*,#502,.F.);
#619=ORIENTED_EDGE('',*,*,#501,.F.);
#620=ORIENTED_EDGE('',*,*,#503,.F.);
#621=ORIENTED_EDGE('',*,*,#488,.T.);
#622=ORIENTED_EDGE('',*,*,#489,.T.);
#623=ORIENTED_EDGE('',*,*,#503,.T.);
#624=ORIENTED_EDGE('',*,*,#500,.T.);
#625=ORIENTED_EDGE('',*,*,#497,.T.);
#626=ORIENTED_EDGE('',*,*,#491,.T.);
#627=ORIENTED_EDGE('',*,*,#494,.T.);
#628=ORIENTED_EDGE('',*,*,#484,.T.);
#629=ORIENTED_EDGE('',*,*,#480,.T.);
#630=ORIENTED_EDGE('',*,*,#487,.T.);
#631=ORIENTED_EDGE('',*,*,#496,.T.);
#632=ORIENTED_EDGE('',*,*,#499,.T.);
#633=ORIENTED_EDGE('',*,*,#502,.T.);
#634=ORIENTED_EDGE('',*,*,#492,.T.);
#635=ORIENTED_EDGE('',*,*,#482,.T.);
#636=ORIENTED_EDGE('',*,*,#486,.T.);
#637=ORIENTED_EDGE('',*,*,#495,.T.);
#638=ORIENTED_EDGE('',*,*,#504,.F.);
#639=ORIENTED_EDGE('',*,*,#505,.F.);
#640=ORIENTED_EDGE('',*,*,#506,.F.);
#641=ORIENTED_EDGE('',*,*,#507,.F.);
#642=ORIENTED_EDGE('',*,*,#508,.F.);
#643=ORIENTED_EDGE('',*,*,#509,.F.);
#644=ORIENTED_EDGE('',*,*,#510,.F.);
#645=ORIENTED_EDGE('',*,*,#511,.F.);
#646=ORIENTED_EDGE('',*,*,#504,.T.);
#647=ORIENTED_EDGE('',*,*,#512,.T.);
#648=ORIENTED_EDGE('',*,*,#513,.T.);
#649=ORIENTED_EDGE('',*,*,#514,.F.);
#650=ORIENTED_EDGE('',*,*,#511,.T.);
#651=ORIENTED_EDGE('',*,*,#515,.T.);
#652=ORIENTED_EDGE('',*,*,#516,.T.);
#653=ORIENTED_EDGE('',*,*,#517,.F.);
#654=ORIENTED_EDGE('',*,*,#510,.T.);
#655=ORIENTED_EDGE('',*,*,#518,.T.);
#656=ORIENTED_EDGE('',*,*,#519,.T.);
#657=ORIENTED_EDGE('',*,*,#515,.F.);
#658=ORIENTED_EDGE('',*,*,#509,.T.);
#659=ORIENTED_EDGE('',*,*,#520,.T.);
#660=ORIENTED_EDGE('',*,*,#521,.T.);
#661=ORIENTED_EDGE('',*,*,#518,.F.);
#662=ORIENTED_EDGE('',*,*,#508,.T.);
#663=ORIENTED_EDGE('',*,*,#517,.T.);
#664=ORIENTED_EDGE('',*,*,#522,.T.);
#665=ORIENTED_EDGE('',*,*,#520,.F.);
#666=ORIENTED_EDGE('',*,*,#507,.T.);
#667=ORIENTED_EDGE('',*,*,#523,.T.);
#668=ORIENTED_EDGE('',*,*,#524,.T.);
#669=ORIENTED_EDGE('',*,*,#512,.F.);
#670=ORIENTED_EDGE('',*,*,#505,.T.);
#671=ORIENTED_EDGE('',*,*,#514,.T.);
#672=ORIENTED_EDGE('',*,*,#525,.T.);
#673=ORIENTED_EDGE('',*,*,#526,.F.);
#674=ORIENTED_EDGE('',*,*,#506,.T.);
#675=ORIENTED_EDGE('',*,*,#526,.T.);
#676=ORIENTED_EDGE('',*,*,#527,.T.);
#677=ORIENTED_EDGE('',*,*,#523,.F.);
#678=ORIENTED_EDGE('',*,*,#524,.F.);
#679=ORIENTED_EDGE('',*,*,#527,.F.);
#680=ORIENTED_EDGE('',*,*,#525,.F.);
#681=ORIENTED_EDGE('',*,*,#513,.F.);
#682=ORIENTED_EDGE('',*,*,#521,.F.);
#683=ORIENTED_EDGE('',*,*,#522,.F.);
#684=ORIENTED_EDGE('',*,*,#516,.F.);
#685=ORIENTED_EDGE('',*,*,#519,.F.);
#686=ORIENTED_EDGE('',*,*,#528,.T.);
#687=ORIENTED_EDGE('',*,*,#529,.F.);
#688=ORIENTED_EDGE('',*,*,#530,.F.);
#689=ORIENTED_EDGE('',*,*,#531,.F.);
#690=ORIENTED_EDGE('',*,*,#532,.T.);
#691=ORIENTED_EDGE('',*,*,#533,.F.);
#692=ORIENTED_EDGE('',*,*,#528,.F.);
#693=ORIENTED_EDGE('',*,*,#534,.F.);
#694=ORIENTED_EDGE('',*,*,#532,.F.);
#695=ORIENTED_EDGE('',*,*,#535,.F.);
#696=ORIENTED_EDGE('',*,*,#536,.T.);
#697=ORIENTED_EDGE('',*,*,#537,.F.);
#698=ORIENTED_EDGE('',*,*,#536,.F.);
#699=ORIENTED_EDGE('',*,*,#538,.F.);
#700=ORIENTED_EDGE('',*,*,#539,.T.);
#701=ORIENTED_EDGE('',*,*,#540,.F.);
#702=ORIENTED_EDGE('',*,*,#539,.F.);
#703=ORIENTED_EDGE('',*,*,#531,.T.);
#704=ORIENTED_EDGE('',*,*,#541,.F.);
#705=ORIENTED_EDGE('',*,*,#529,.T.);
#706=ORIENTED_EDGE('',*,*,#542,.F.);
#707=ORIENTED_EDGE('',*,*,#543,.F.);
#708=ORIENTED_EDGE('',*,*,#544,.F.);
#709=ORIENTED_EDGE('',*,*,#545,.F.);
#710=ORIENTED_EDGE('',*,*,#546,.F.);
#711=ORIENTED_EDGE('',*,*,#547,.F.);
#712=ORIENTED_EDGE('',*,*,#548,.F.);
#713=ORIENTED_EDGE('',*,*,#549,.F.);
#714=ORIENTED_EDGE('',*,*,#545,.T.);
#715=ORIENTED_EDGE('',*,*,#550,.F.);
#716=ORIENTED_EDGE('',*,*,#551,.F.);
#717=ORIENTED_EDGE('',*,*,#552,.T.);
#718=ORIENTED_EDGE('',*,*,#540,.T.);
#719=ORIENTED_EDGE('',*,*,#542,.T.);
#720=ORIENTED_EDGE('',*,*,#552,.F.);
#721=ORIENTED_EDGE('',*,*,#553,.F.);
#722=ORIENTED_EDGE('',*,*,#554,.T.);
#723=ORIENTED_EDGE('',*,*,#544,.T.);
#724=ORIENTED_EDGE('',*,*,#555,.F.);
#725=ORIENTED_EDGE('',*,*,#556,.F.);
#726=ORIENTED_EDGE('',*,*,#550,.T.);
#727=ORIENTED_EDGE('',*,*,#533,.T.);
#728=ORIENTED_EDGE('',*,*,#534,.T.);
#729=ORIENTED_EDGE('',*,*,#530,.T.);
#730=ORIENTED_EDGE('',*,*,#541,.T.);
#731=ORIENTED_EDGE('',*,*,#543,.T.);
#732=ORIENTED_EDGE('',*,*,#554,.F.);
#733=ORIENTED_EDGE('',*,*,#557,.F.);
#734=ORIENTED_EDGE('',*,*,#555,.T.);
#735=ORIENTED_EDGE('',*,*,#535,.T.);
#736=ORIENTED_EDGE('',*,*,#547,.T.);
#737=ORIENTED_EDGE('',*,*,#558,.F.);
#738=ORIENTED_EDGE('',*,*,#559,.F.);
#739=ORIENTED_EDGE('',*,*,#560,.T.);
#740=ORIENTED_EDGE('',*,*,#538,.T.);
#741=ORIENTED_EDGE('',*,*,#548,.T.);
#742=ORIENTED_EDGE('',*,*,#560,.F.);
#743=ORIENTED_EDGE('',*,*,#561,.F.);
#744=ORIENTED_EDGE('',*,*,#562,.T.);
#745=ORIENTED_EDGE('',*,*,#557,.T.);
#746=ORIENTED_EDGE('',*,*,#553,.T.);
#747=ORIENTED_EDGE('',*,*,#551,.T.);
#748=ORIENTED_EDGE('',*,*,#556,.T.);
#749=ORIENTED_EDGE('',*,*,#563,.T.);
#750=ORIENTED_EDGE('',*,*,#564,.T.);
#751=ORIENTED_EDGE('',*,*,#561,.T.);
#752=ORIENTED_EDGE('',*,*,#559,.T.);
#753=ORIENTED_EDGE('',*,*,#546,.T.);
#754=ORIENTED_EDGE('',*,*,#565,.F.);
#755=ORIENTED_EDGE('',*,*,#563,.F.);
#756=ORIENTED_EDGE('',*,*,#558,.T.);
#757=ORIENTED_EDGE('',*,*,#549,.T.);
#758=ORIENTED_EDGE('',*,*,#562,.F.);
#759=ORIENTED_EDGE('',*,*,#564,.F.);
#760=ORIENTED_EDGE('',*,*,#565,.T.);
#761=ORIENTED_EDGE('',*,*,#537,.T.);
#762=ORIENTED_EDGE('',*,*,#566,.T.);
#763=ORIENTED_EDGE('',*,*,#567,.T.);
#764=ORIENTED_EDGE('',*,*,#568,.F.);
#765=ORIENTED_EDGE('',*,*,#567,.F.);
#766=ORIENTED_EDGE('',*,*,#569,.T.);
#767=ORIENTED_EDGE('',*,*,#566,.F.);
#768=ORIENTED_EDGE('',*,*,#568,.T.);
#769=ORIENTED_EDGE('',*,*,#570,.T.);
#770=ORIENTED_EDGE('',*,*,#571,.T.);
#771=ORIENTED_EDGE('',*,*,#569,.F.);
#772=ORIENTED_EDGE('',*,*,#571,.F.);
#773=ORIENTED_EDGE('',*,*,#570,.F.);
#774=ORIENTED_EDGE('',*,*,#572,.T.);
#775=ORIENTED_EDGE('',*,*,#573,.T.);
#776=ORIENTED_EDGE('',*,*,#574,.F.);
#777=ORIENTED_EDGE('',*,*,#573,.F.);
#778=ORIENTED_EDGE('',*,*,#572,.F.);
#779=ORIENTED_EDGE('',*,*,#575,.T.);
#780=ORIENTED_EDGE('',*,*,#574,.T.);
#781=ORIENTED_EDGE('',*,*,#576,.F.);
#782=ORIENTED_EDGE('',*,*,#576,.T.);
#783=ORIENTED_EDGE('',*,*,#577,.T.);
#784=ORIENTED_EDGE('',*,*,#575,.F.);
#785=ORIENTED_EDGE('',*,*,#577,.F.);
#786=ORIENTED_EDGE('',*,*,#578,.T.);
#787=ORIENTED_EDGE('',*,*,#579,.T.);
#788=ORIENTED_EDGE('',*,*,#580,.F.);
#789=ORIENTED_EDGE('',*,*,#579,.F.);
#790=ORIENTED_EDGE('',*,*,#578,.F.);
#791=ORIENTED_EDGE('',*,*,#581,.T.);
#792=ORIENTED_EDGE('',*,*,#580,.T.);
#793=ORIENTED_EDGE('',*,*,#582,.F.);
#794=ORIENTED_EDGE('',*,*,#582,.T.);
#795=ORIENTED_EDGE('',*,*,#583,.T.);
#796=ORIENTED_EDGE('',*,*,#581,.F.);
#797=ORIENTED_EDGE('',*,*,#583,.F.);
#798=ORIENTED_EDGE('',*,*,#584,.T.);
#799=ORIENTED_EDGE('',*,*,#585,.T.);
#800=ORIENTED_EDGE('',*,*,#586,.F.);
#801=ORIENTED_EDGE('',*,*,#585,.F.);
#802=ORIENTED_EDGE('',*,*,#584,.F.);
#803=ORIENTED_EDGE('',*,*,#587,.T.);
#804=ORIENTED_EDGE('',*,*,#586,.T.);
#805=ORIENTED_EDGE('',*,*,#588,.F.);
#806=ORIENTED_EDGE('',*,*,#588,.T.);
#807=ORIENTED_EDGE('',*,*,#589,.T.);
#808=ORIENTED_EDGE('',*,*,#587,.F.);
#809=ORIENTED_EDGE('',*,*,#589,.F.);
#810=PLANE('',#971);
#811=PLANE('',#972);
#812=PLANE('',#973);
#813=PLANE('',#974);
#814=PLANE('',#975);
#815=PLANE('',#976);
#816=PLANE('',#977);
#817=PLANE('',#978);
#818=PLANE('',#979);
#819=PLANE('',#980);
#820=PLANE('',#981);
#821=PLANE('',#982);
#822=PLANE('',#983);
#823=PLANE('',#984);
#824=PLANE('',#985);
#825=PLANE('',#986);
#826=PLANE('',#987);
#827=PLANE('',#988);
#828=PLANE('',#989);
#829=PLANE('',#990);
#830=PLANE('',#991);
#831=PLANE('',#992);
#832=PLANE('',#993);
#833=PLANE('',#1000);
#834=PLANE('',#1001);
#835=PLANE('',#1002);
#836=PLANE('',#1003);
#837=PLANE('',#1004);
#838=PLANE('',#1005);
#839=PLANE('',#1006);
#840=PLANE('',#1007);
#841=PLANE('',#1008);
#842=PLANE('',#1009);
#843=PLANE('',#1010);
#844=PLANE('',#1015);
#845=PLANE('',#1017);
#846=PLANE('',#1020);
#847=PLANE('',#1025);
#848=PLANE('',#1027);
#849=PLANE('',#1034);
#850=PLANE('',#1036);
#851=PLANE('',#1043);
#852=PLANE('',#1045);
#853=ADVANCED_FACE('',(#103),#810,.F.);
#854=ADVANCED_FACE('',(#104),#811,.F.);
#855=ADVANCED_FACE('',(#105),#812,.F.);
#856=ADVANCED_FACE('',(#106),#813,.F.);
#857=ADVANCED_FACE('',(#107),#814,.F.);
#858=ADVANCED_FACE('',(#108),#815,.F.);
#859=ADVANCED_FACE('',(#109),#816,.F.);
#860=ADVANCED_FACE('',(#110),#817,.F.);
#861=ADVANCED_FACE('',(#111,#85),#818,.T.);
#862=ADVANCED_FACE('',(#112,#86),#819,.T.);
#863=ADVANCED_FACE('',(#113,#87),#820,.F.);
#864=ADVANCED_FACE('',(#114),#821,.F.);
#865=ADVANCED_FACE('',(#115),#822,.F.);
#866=ADVANCED_FACE('',(#116),#823,.F.);
#867=ADVANCED_FACE('',(#117),#824,.F.);
#868=ADVANCED_FACE('',(#118),#825,.F.);
#869=ADVANCED_FACE('',(#119),#826,.F.);
#870=ADVANCED_FACE('',(#120),#827,.F.);
#871=ADVANCED_FACE('',(#121),#828,.F.);
#872=ADVANCED_FACE('',(#122,#88),#829,.F.);
#873=ADVANCED_FACE('',(#123),#830,.F.);
#874=ADVANCED_FACE('',(#124),#831,.F.);
#875=ADVANCED_FACE('',(#125),#832,.F.);
#876=ADVANCED_FACE('',(#126),#61,.F.);
#877=ADVANCED_FACE('',(#127),#62,.F.);
#878=ADVANCED_FACE('',(#128),#833,.F.);
#879=ADVANCED_FACE('',(#129,#89),#834,.F.);
#880=ADVANCED_FACE('',(#130,#90),#835,.F.);
#881=ADVANCED_FACE('',(#131),#836,.F.);
#882=ADVANCED_FACE('',(#132,#91),#837,.F.);
#883=ADVANCED_FACE('',(#133,#92),#838,.F.);
#884=ADVANCED_FACE('',(#134,#93),#839,.F.);
#885=ADVANCED_FACE('',(#135),#840,.F.);
#886=ADVANCED_FACE('',(#136,#94),#841,.T.);
#887=ADVANCED_FACE('',(#137),#842,.F.);
#888=ADVANCED_FACE('',(#138,#95),#843,.F.);
#889=ADVANCED_FACE('',(#139),#63,.T.);
#890=ADVANCED_FACE('',(#140,#96),#844,.T.);
#891=ADVANCED_FACE('',(#141),#845,.T.);
#892=ADVANCED_FACE('',(#142),#64,.T.);
#893=ADVANCED_FACE('',(#143),#846,.F.);
#894=ADVANCED_FACE('',(#144),#65,.T.);
#895=ADVANCED_FACE('',(#145,#97),#847,.F.);
#896=ADVANCED_FACE('',(#146,#98),#848,.T.);
#897=ADVANCED_FACE('',(#147),#66,.F.);
#898=ADVANCED_FACE('',(#148),#67,.T.);
#899=ADVANCED_FACE('',(#149,#99),#849,.F.);
#900=ADVANCED_FACE('',(#150,#100),#850,.T.);
#901=ADVANCED_FACE('',(#151),#68,.F.);
#902=ADVANCED_FACE('',(#152),#69,.T.);
#903=ADVANCED_FACE('',(#153,#101),#851,.F.);
#904=ADVANCED_FACE('',(#154,#102),#852,.T.);
#905=ADVANCED_FACE('',(#155),#70,.F.);
#906=CLOSED_SHELL('',(#853,#854,#855,#856,#857,#858,#859,#860,#861,#862));
#907=CLOSED_SHELL('',(#863,#864,#865,#866,#867,#868,#869,#870,#871,#872));
#908=CLOSED_SHELL('',(#873,#874,#875,#876,#877,#878,#879,#880,#881,#882,
#883,#884,#885,#886,#887,#888));
#909=CLOSED_SHELL('',(#889,#890,#891,#892,#893));
#910=CLOSED_SHELL('',(#894,#895,#896,#897));
#911=CLOSED_SHELL('',(#898,#899,#900,#901));
#912=CLOSED_SHELL('',(#902,#903,#904,#905));
#913=DERIVED_UNIT_ELEMENT(#923,1.);
#914=DERIVED_UNIT_ELEMENT(#1573,-3.);
#915=DERIVED_UNIT_ELEMENT(#923,1.);
#916=DERIVED_UNIT_ELEMENT(#1573,-3.);
#917=DERIVED_UNIT_ELEMENT(#923,1.);
#918=DERIVED_UNIT_ELEMENT(#1573,-3.);
#919=DERIVED_UNIT_ELEMENT(#923,1.);
#920=DERIVED_UNIT_ELEMENT(#1573,-3.);
#921=DERIVED_UNIT_ELEMENT(#923,1.);
#922=DERIVED_UNIT_ELEMENT(#1573,-3.);
#923=(
MASS_UNIT()
NAMED_UNIT(*)
SI_UNIT(.KILO.,.GRAM.)
);
#924=DERIVED_UNIT((#913,#914));
#925=DERIVED_UNIT((#915,#916));
#926=DERIVED_UNIT((#917,#918));
#927=DERIVED_UNIT((#919,#920));
#928=DERIVED_UNIT((#921,#922));
#929=MEASURE_REPRESENTATION_ITEM('density measure',
POSITIVE_RATIO_MEASURE(7850.),#924);
#930=MEASURE_REPRESENTATION_ITEM('density measure',
POSITIVE_RATIO_MEASURE(7850.),#925);
#931=MEASURE_REPRESENTATION_ITEM('density measure',
POSITIVE_RATIO_MEASURE(7850.),#926);
#932=MEASURE_REPRESENTATION_ITEM('density measure',
POSITIVE_RATIO_MEASURE(7850.),#927);
#933=MEASURE_REPRESENTATION_ITEM('density measure',
POSITIVE_RATIO_MEASURE(7850.),#928);
#934=PROPERTY_DEFINITION_REPRESENTATION(#959,#944);
#935=PROPERTY_DEFINITION_REPRESENTATION(#960,#945);
#936=PROPERTY_DEFINITION_REPRESENTATION(#961,#946);
#937=PROPERTY_DEFINITION_REPRESENTATION(#962,#947);
#938=PROPERTY_DEFINITION_REPRESENTATION(#963,#948);
#939=PROPERTY_DEFINITION_REPRESENTATION(#964,#949);
#940=PROPERTY_DEFINITION_REPRESENTATION(#965,#950);
#941=PROPERTY_DEFINITION_REPRESENTATION(#966,#951);
#942=PROPERTY_DEFINITION_REPRESENTATION(#967,#952);
#943=PROPERTY_DEFINITION_REPRESENTATION(#968,#953);
#944=REPRESENTATION('material name',(#954),#1566);
#945=REPRESENTATION('density',(#929),#1566);
#946=REPRESENTATION('material name',(#955),#1567);
#947=REPRESENTATION('density',(#930),#1567);
#948=REPRESENTATION('material name',(#956),#1568);
#949=REPRESENTATION('density',(#931),#1568);
#950=REPRESENTATION('material name',(#957),#1569);
#951=REPRESENTATION('density',(#932),#1569);
#952=REPRESENTATION('material name',(#958),#1570);
#953=REPRESENTATION('density',(#933),#1570);
#954=DESCRIPTIVE_REPRESENTATION_ITEM('Acero','Acero');
#955=DESCRIPTIVE_REPRESENTATION_ITEM('Acero','Acero');
#956=DESCRIPTIVE_REPRESENTATION_ITEM('Acero','Acero');
#957=DESCRIPTIVE_REPRESENTATION_ITEM('Acero','Acero');
#958=DESCRIPTIVE_REPRESENTATION_ITEM('Acero','Acero');
#959=PROPERTY_DEFINITION('material property','material name',#1601);
#960=PROPERTY_DEFINITION('material property','density of part',#1601);
#961=PROPERTY_DEFINITION('material property','material name',#1602);
#962=PROPERTY_DEFINITION('material property','density of part',#1602);
#963=PROPERTY_DEFINITION('material property','material name',#1603);
#964=PROPERTY_DEFINITION('material property','density of part',#1603);
#965=PROPERTY_DEFINITION('material property','material name',#1604);
#966=PROPERTY_DEFINITION('material property','density of part',#1604);
#967=PROPERTY_DEFINITION('material property','material name',#1605);
#968=PROPERTY_DEFINITION('material property','density of part',#1605);
#969=AXIS2_PLACEMENT_3D('',#1311,#1053,#1054);
#970=AXIS2_PLACEMENT_3D('',#1312,#1055,#1056);
#971=AXIS2_PLACEMENT_3D('',#1313,#1057,#1058);
#972=AXIS2_PLACEMENT_3D('',#1322,#1063,#1064);
#973=AXIS2_PLACEMENT_3D('',#1328,#1068,#1069);
#974=AXIS2_PLACEMENT_3D('',#1337,#1074,#1075);
#975=AXIS2_PLACEMENT_3D('',#1343,#1079,#1080);
#976=AXIS2_PLACEMENT_3D('',#1346,#1083,#1084);
#977=AXIS2_PLACEMENT_3D('',#1352,#1088,#1089);
#978=AXIS2_PLACEMENT_3D('',#1358,#1093,#1094);
#979=AXIS2_PLACEMENT_3D('',#1361,#1097,#1098);
#980=AXIS2_PLACEMENT_3D('',#1362,#1099,#1100);
#981=AXIS2_PLACEMENT_3D('',#1363,#1101,#1102);
#982=AXIS2_PLACEMENT_3D('',#1380,#1111,#1112);
#983=AXIS2_PLACEMENT_3D('',#1386,#1116,#1117);
#984=AXIS2_PLACEMENT_3D('',#1392,#1121,#1122);
#985=AXIS2_PLACEMENT_3D('',#1396,#1125,#1126);
#986=AXIS2_PLACEMENT_3D('',#1400,#1129,#1130);
#987=AXIS2_PLACEMENT_3D('',#1402,#1132,#1133);
#988=AXIS2_PLACEMENT_3D('',#1406,#1136,#1137);
#989=AXIS2_PLACEMENT_3D('',#1410,#1140,#1141);
#990=AXIS2_PLACEMENT_3D('',#1412,#1143,#1144);
#991=AXIS2_PLACEMENT_3D('',#1413,#1145,#1146);
#992=AXIS2_PLACEMENT_3D('',#1420,#1150,#1151);
#993=AXIS2_PLACEMENT_3D('',#1426,#1155,#1156);
#994=AXIS2_PLACEMENT_3D('',#1428,#1158,#1159);
#995=AXIS2_PLACEMENT_3D('',#1430,#1160,#1161);
#996=AXIS2_PLACEMENT_3D('',#1433,#1163,#1164);
#997=AXIS2_PLACEMENT_3D('',#1434,#1165,#1166);
#998=AXIS2_PLACEMENT_3D('',#1436,#1167,#1168);
#999=AXIS2_PLACEMENT_3D('',#1439,#1170,#1171);
#1000=AXIS2_PLACEMENT_3D('',#1440,#1172,#1173);
#1001=AXIS2_PLACEMENT_3D('',#1442,#1175,#1176);
#1002=AXIS2_PLACEMENT_3D('',#1459,#1185,#1186);
#1003=AXIS2_PLACEMENT_3D('',#1465,#1190,#1191);
#1004=AXIS2_PLACEMENT_3D('',#1469,#1194,#1195);
#1005=AXIS2_PLACEMENT_3D('',#1473,#1198,#1199);
#1006=AXIS2_PLACEMENT_3D('',#1475,#1201,#1202);
#1007=AXIS2_PLACEMENT_3D('',#1481,#1206,#1207);
#1008=AXIS2_PLACEMENT_3D('',#1485,#1210,#1211);
#1009=AXIS2_PLACEMENT_3D('',#1489,#1214,#1215);
#1010=AXIS2_PLACEMENT_3D('',#1491,#1217,#1218);
#1011=AXIS2_PLACEMENT_3D('',#1492,#1219,#1220);
#1012=AXIS2_PLACEMENT_3D('',#1493,#1221,#1222);
#1013=AXIS2_PLACEMENT_3D('',#1495,#1223,#1224);
#1014=AXIS2_PLACEMENT_3D('',#1498,#1226,#1227);
#1015=AXIS2_PLACEMENT_3D('',#1499,#1228,#1229);
#1016=AXIS2_PLACEMENT_3D('',#1501,#1230,#1231);
#1017=AXIS2_PLACEMENT_3D('',#1502,#1232,#1233);
#1018=AXIS2_PLACEMENT_3D('',#1503,#1234,#1235);
#1019=AXIS2_PLACEMENT_3D('',#1505,#1236,#1237);
#1020=AXIS2_PLACEMENT_3D('',#1507,#1239,#1240);
#1021=AXIS2_PLACEMENT_3D('',#1508,#1241,#1242);
#1022=AXIS2_PLACEMENT_3D('',#1509,#1243,#1244);
#1023=AXIS2_PLACEMENT_3D('',#1511,#1245,#1246);
#1024=AXIS2_PLACEMENT_3D('',#1514,#1248,#1249);
#1025=AXIS2_PLACEMENT_3D('',#1515,#1250,#1251);
#1026=AXIS2_PLACEMENT_3D('',#1517,#1252,#1253);
#1027=AXIS2_PLACEMENT_3D('',#1518,#1254,#1255);
#1028=AXIS2_PLACEMENT_3D('',#1520,#1256,#1257);
#1029=AXIS2_PLACEMENT_3D('',#1521,#1258,#1259);
#1030=AXIS2_PLACEMENT_3D('',#1523,#1261,#1262);
#1031=AXIS2_PLACEMENT_3D('',#1524,#1263,#1264);
#1032=AXIS2_PLACEMENT_3D('',#1526,#1265,#1266);
#1033=AXIS2_PLACEMENT_3D('',#1529,#1268,#1269);
#1034=AXIS2_PLACEMENT_3D('',#1530,#1270,#1271);
#1035=AXIS2_PLACEMENT_3D('',#1532,#1272,#1273);
#1036=AXIS2_PLACEMENT_3D('',#1533,#1274,#1275);
#1037=AXIS2_PLACEMENT_3D('',#1535,#1276,#1277);
#1038=AXIS2_PLACEMENT_3D('',#1536,#1278,#1279);
#1039=AXIS2_PLACEMENT_3D('',#1538,#1281,#1282);
#1040=AXIS2_PLACEMENT_3D('',#1539,#1283,#1284);
#1041=AXIS2_PLACEMENT_3D('',#1541,#1285,#1286);
#1042=AXIS2_PLACEMENT_3D('',#1544,#1288,#1289);
#1043=AXIS2_PLACEMENT_3D('',#1545,#1290,#1291);
#1044=AXIS2_PLACEMENT_3D('',#1547,#1292,#1293);
#1045=AXIS2_PLACEMENT_3D('',#1548,#1294,#1295);
#1046=AXIS2_PLACEMENT_3D('',#1550,#1296,#1297);
#1047=AXIS2_PLACEMENT_3D('',#1551,#1298,#1299);
#1048=AXIS2_PLACEMENT_3D('',#1553,#1301,#1302);
#1049=AXIS2_PLACEMENT_3D('',#1554,#1303,#1304);
#1050=AXIS2_PLACEMENT_3D('',#1555,#1305,#1306);
#1051=AXIS2_PLACEMENT_3D('',#1556,#1307,#1308);
#1052=AXIS2_PLACEMENT_3D('',#1557,#1309,#1310);
#1053=DIRECTION('axis',(0.,0.,1.));
#1054=DIRECTION('refdir',(1.,0.,0.));
#1055=DIRECTION('axis',(0.,0.,1.));
#1056=DIRECTION('refdir',(1.,0.,0.));
#1057=DIRECTION('center_axis',(-1.,0.,0.));
#1058=DIRECTION('ref_axis',(0.,0.,1.));
#1059=DIRECTION('',(0.,0.,-1.));
#1060=DIRECTION('',(0.,-1.,0.));
#1061=DIRECTION('',(0.,0.,1.));
#1062=DIRECTION('',(0.,-1.,0.));
#1063=DIRECTION('center_axis',(0.,0.,1.));
#1064=DIRECTION('ref_axis',(1.,0.,0.));
#1065=DIRECTION('',(-1.,0.,0.));
#1066=DIRECTION('',(0.,-1.,0.));
#1067=DIRECTION('',(1.,0.,0.));
#1068=DIRECTION('center_axis',(-9.912039424762E-17,0.,1.));
#1069=DIRECTION('ref_axis',(1.,0.,9.912039424762E-17));
#1070=DIRECTION('',(1.,0.,9.912039424762E-17));
#1071=DIRECTION('',(0.,-1.,0.));
#1072=DIRECTION('',(-1.,0.,-9.912039424762E-17));
#1073=DIRECTION('',(0.,-1.,0.));
#1074=DIRECTION('center_axis',(-2.55106393526E-17,0.,-1.));
#1075=DIRECTION('ref_axis',(-1.,0.,2.55106393526E-17));
#1076=DIRECTION('',(1.,0.,-2.55106393526E-17));
#1077=DIRECTION('',(-1.,0.,2.55106393526E-17));
#1078=DIRECTION('',(0.,-1.,0.));
#1079=DIRECTION('center_axis',(1.,0.,0.));
#1080=DIRECTION('ref_axis',(0.,0.,-1.));
#1081=DIRECTION('',(0.,0.,1.));
#1082=DIRECTION('',(0.,0.,-1.));
#1083=DIRECTION('center_axis',(-1.,0.,2.312964634636E-16));
#1084=DIRECTION('ref_axis',(2.312964634636E-16,0.,1.));
#1085=DIRECTION('',(2.312964634636E-16,0.,1.));
#1086=DIRECTION('',(-2.312964634636E-16,0.,-1.));
#1087=DIRECTION('',(0.,-1.,0.));
#1088=DIRECTION('center_axis',(0.,0.,-1.));
#1089=DIRECTION('ref_axis',(-1.,0.,0.));
#1090=DIRECTION('',(-1.,0.,0.));
#1091=DIRECTION('',(1.,0.,0.));
#1092=DIRECTION('',(0.,-1.,0.));
#1093=DIRECTION('center_axis',(1.,0.,0.));
#1094=DIRECTION('ref_axis',(0.,0.,-1.));
#1095=DIRECTION('',(0.,0.,-1.));
#1096=DIRECTION('',(0.,0.,1.));
#1097=DIRECTION('center_axis',(0.,1.,0.));
#1098=DIRECTION('ref_axis',(-1.,0.,0.));
#1099=DIRECTION('center_axis',(0.,-1.,0.));
#1100=DIRECTION('ref_axis',(1.,0.,0.));
#1101=DIRECTION('center_axis',(0.,-1.,0.));
#1102=DIRECTION('ref_axis',(1.,0.,0.));
#1103=DIRECTION('',(1.,0.,9.912039424762E-17));
#1104=DIRECTION('',(0.,0.,-1.));
#1105=DIRECTION('',(-1.,0.,0.));
#1106=DIRECTION('',(2.312964634636E-16,0.,1.));
#1107=DIRECTION('',(-1.,0.,2.55106393526E-17));
#1108=DIRECTION('',(0.,0.,-1.));
#1109=DIRECTION('',(1.,0.,0.));
#1110=DIRECTION('',(0.,0.,1.));
#1111=DIRECTION('center_axis',(-9.912039424762E-17,0.,1.));
#1112=DIRECTION('ref_axis',(1.,0.,9.912039424762E-17));
#1113=DIRECTION('',(0.,-1.,0.));
#1114=DIRECTION('',(-1.,0.,-9.912039424762E-17));
#1115=DIRECTION('',(0.,-1.,0.));
#1116=DIRECTION('center_axis',(-1.,0.,0.));
#1117=DIRECTION('ref_axis',(0.,0.,1.));
#1118=DIRECTION('',(0.,-1.,0.));
#1119=DIRECTION('',(0.,0.,-1.));
#1120=DIRECTION('',(0.,-1.,0.));
#1121=DIRECTION('center_axis',(0.,0.,1.));
#1122=DIRECTION('ref_axis',(1.,0.,0.));
#1123=DIRECTION('',(0.,-1.,0.));
#1124=DIRECTION('',(-1.,0.,0.));
#1125=DIRECTION('center_axis',(1.,0.,0.));
#1126=DIRECTION('ref_axis',(0.,0.,-1.));
#1127=DIRECTION('',(0.,-1.,0.));
#1128=DIRECTION('',(0.,0.,1.));
#1129=DIRECTION('center_axis',(-2.55106393526E-17,0.,-1.));
#1130=DIRECTION('ref_axis',(-1.,0.,2.55106393526E-17));
#1131=DIRECTION('',(1.,0.,-2.55106393526E-17));
#1132=DIRECTION('center_axis',(-1.,0.,2.312964634636E-16));
#1133=DIRECTION('ref_axis',(2.312964634636E-16,0.,1.));
#1134=DIRECTION('',(0.,-1.,0.));
#1135=DIRECTION('',(-2.312964634636E-16,0.,-1.));
#1136=DIRECTION('center_axis',(1.,0.,0.));
#1137=DIRECTION('ref_axis',(0.,0.,-1.));
#1138=DIRECTION('',(0.,0.,1.));
#1139=DIRECTION('',(0.,-1.,0.));
#1140=DIRECTION('center_axis',(0.,0.,-1.));
#1141=DIRECTION('ref_axis',(-1.,0.,0.));
#1142=DIRECTION('',(1.,0.,0.));
#1143=DIRECTION('center_axis',(0.,1.,0.));
#1144=DIRECTION('ref_axis',(0.,0.,1.));
#1145=DIRECTION('center_axis',(0.,0.,-1.));
#1146=DIRECTION('ref_axis',(-1.,0.,0.));
#1147=DIRECTION('',(0.316227766016838,0.948683298050514,0.));
#1148=DIRECTION('',(0.316227766016838,-0.948683298050514,0.));
#1149=DIRECTION('',(0.,1.,0.));
#1150=DIRECTION('center_axis',(0.,0.,-1.));
#1151=DIRECTION('ref_axis',(-1.,0.,0.));
#1152=DIRECTION('',(0.316227766016838,0.948683298050514,0.));
#1153=DIRECTION('',(0.316227766016838,-0.948683298050514,0.));
#1154=DIRECTION('',(0.,-1.,0.));
#1155=DIRECTION('center_axis',(0.,0.,-1.));
#1156=DIRECTION('ref_axis',(-1.,0.,0.));
#1157=DIRECTION('',(-1.,0.,0.));
#1158=DIRECTION('center_axis',(-1.,0.,0.));
#1159=DIRECTION('ref_axis',(0.,1.,0.));
#1160=DIRECTION('center_axis',(-1.,0.,2.312964634636E-16));
#1161=DIRECTION('ref_axis',(0.,1.,0.));
#1162=DIRECTION('',(-1.,0.,0.));
#1163=DIRECTION('center_axis',(1.,0.,0.));
#1164=DIRECTION('ref_axis',(0.,1.,0.));
#1165=DIRECTION('center_axis',(-1.,0.,0.));
#1166=DIRECTION('ref_axis',(0.,1.,0.));
#1167=DIRECTION('center_axis',(-1.,0.,0.));
#1168=DIRECTION('ref_axis',(0.,1.,0.));
#1169=DIRECTION('',(-1.,0.,0.));
#1170=DIRECTION('center_axis',(1.,0.,0.));
#1171=DIRECTION('ref_axis',(0.,1.,0.));
#1172=DIRECTION('center_axis',(0.,0.,-1.));
#1173=DIRECTION('ref_axis',(-1.,0.,0.));
#1174=DIRECTION('',(1.,0.,0.));
#1175=DIRECTION('center_axis',(0.,1.,0.));
#1176=DIRECTION('ref_axis',(-1.,0.,0.));
#1177=DIRECTION('',(-1.,0.,-9.912039424762E-17));
#1178=DIRECTION('',(-2.312964634636E-16,0.,-1.));
#1179=DIRECTION('',(1.,0.,0.));
#1180=DIRECTION('',(0.,0.,1.));
#1181=DIRECTION('',(1.,0.,-2.55106393526E-17));
#1182=DIRECTION('',(0.,0.,-1.));
#1183=DIRECTION('',(-1.,0.,0.));
#1184=DIRECTION('',(0.,0.,1.));
#1185=DIRECTION('center_axis',(1.,0.,0.));
#1186=DIRECTION('ref_axis',(0.,0.,-1.));
#1187=DIRECTION('',(0.,-1.,0.));
#1188=DIRECTION('',(0.,0.,1.));
#1189=DIRECTION('',(0.,-1.,0.));
#1190=DIRECTION('center_axis',(-9.912039424762E-17,0.,1.));
#1191=DIRECTION('ref_axis',(1.,0.,9.912039424762E-17));
#1192=DIRECTION('',(-1.,0.,-9.912039424762E-17));
#1193=DIRECTION('',(0.,-1.,0.));
#1194=DIRECTION('center_axis',(0.,0.,-1.));
#1195=DIRECTION('ref_axis',(-1.,0.,0.));
#1196=DIRECTION('',(0.,-1.,0.));
#1197=DIRECTION('',(1.,0.,0.));
#1198=DIRECTION('center_axis',(-1.,0.,2.312964634636E-16));
#1199=DIRECTION('ref_axis',(2.312964634636E-16,0.,1.));
#1200=DIRECTION('',(-2.312964634636E-16,0.,-1.));
#1201=DIRECTION('center_axis',(-1.,0.,0.));
#1202=DIRECTION('ref_axis',(0.,0.,1.));
#1203=DIRECTION('',(0.,-1.,0.));
#1204=DIRECTION('',(0.,0.,-1.));
#1205=DIRECTION('',(0.,-1.,0.));
#1206=DIRECTION('center_axis',(0.,0.,1.));
#1207=DIRECTION('ref_axis',(1.,0.,0.));
#1208=DIRECTION('',(-1.,0.,0.));
#1209=DIRECTION('',(0.,-1.,0.));
#1210=DIRECTION('center_axis',(0.,1.,0.));
#1211=DIRECTION('ref_axis',(0.,0.,1.));
#1212=DIRECTION('',(1.,0.,-2.55106393526E-17));
#1213=DIRECTION('',(0.,0.,1.));
#1214=DIRECTION('center_axis',(-2.55106393526E-17,0.,-1.));
#1215=DIRECTION('ref_axis',(-1.,0.,2.55106393526E-17));
#1216=DIRECTION('',(0.,-1.,0.));
#1217=DIRECTION('center_axis',(1.,0.,0.));
#1218=DIRECTION('ref_axis',(0.,0.,-1.));
#1219=DIRECTION('axis',(0.,0.,1.));
#1220=DIRECTION('refdir',(1.,0.,0.));
#1221=DIRECTION('center_axis',(-1.,0.,2.22044604925E-16));
#1222=DIRECTION('ref_axis',(-2.22044604925E-16,0.,-1.));
#1223=DIRECTION('center_axis',(1.,0.,-2.22044604925E-16));
#1224=DIRECTION('ref_axis',(-2.22044604925E-16,0.,-1.));
#1225=DIRECTION('',(1.,0.,-2.22044604925E-16));
#1226=DIRECTION('center_axis',(1.,0.,-2.22044604925E-16));
#1227=DIRECTION('ref_axis',(-2.22044604925E-16,0.,-1.));
#1228=DIRECTION('center_axis',(1.,0.,-2.22044604925E-16));
#1229=DIRECTION('ref_axis',(-2.22044604925E-16,0.,-1.));
#1230=DIRECTION('center_axis',(1.,0.,-2.22044604925E-16));
#1231=DIRECTION('ref_axis',(-2.22044604925E-16,0.,-1.));
#1232=DIRECTION('center_axis',(1.,0.,-2.22044604925E-16));
#1233=DIRECTION('ref_axis',(-2.22044604925E-16,0.,-1.));
#1234=DIRECTION('center_axis',(-1.,0.,2.22044604925E-16));
#1235=DIRECTION('ref_axis',(-2.22044604925E-16,0.,-1.));
#1236=DIRECTION('center_axis',(1.,0.,-2.22044604925E-16));
#1237=DIRECTION('ref_axis',(-2.22044604925E-16,0.,-1.));
#1238=DIRECTION('',(1.,0.,-2.22044604925E-16));
#1239=DIRECTION('center_axis',(1.,0.,-2.22044604925E-16));
#1240=DIRECTION('ref_axis',(-2.22044604925E-16,0.,-1.));
#1241=DIRECTION('axis',(0.,0.,1.));
#1242=DIRECTION('refdir',(1.,0.,0.));
#1243=DIRECTION('center_axis',(-1.,0.,2.22044604925E-16));
#1244=DIRECTION('ref_axis',(-2.22044604925E-16,0.,-1.));
#1245=DIRECTION('center_axis',(1.,0.,-2.22044604925E-16));
#1246=DIRECTION('ref_axis',(-2.22044604925E-16,0.,-1.));
#1247=DIRECTION('',(1.,0.,-2.22044604925E-16));
#1248=DIRECTION('center_axis',(1.,0.,-2.22044604925E-16));
#1249=DIRECTION('ref_axis',(-2.22044604925E-16,0.,-1.));
#1250=DIRECTION('center_axis',(1.,0.,-2.22044604925E-16));
#1251=DIRECTION('ref_axis',(-2.22044604925E-16,0.,-1.));
#1252=DIRECTION('center_axis',(1.,0.,-2.22044604925E-16));
#1253=DIRECTION('ref_axis',(-2.22044604925E-16,0.,-1.));
#1254=DIRECTION('center_axis',(1.,0.,-2.22044604925E-16));
#1255=DIRECTION('ref_axis',(-2.22044604925E-16,0.,-1.));
#1256=DIRECTION('center_axis',(1.,0.,-2.22044604925E-16));
#1257=DIRECTION('ref_axis',(-2.22044604925E-16,0.,-1.));
#1258=DIRECTION('center_axis',(-1.,0.,2.22044604925E-16));
#1259=DIRECTION('ref_axis',(-2.22044604925E-16,0.,-1.));
#1260=DIRECTION('',(-1.,0.,2.22044604925E-16));
#1261=DIRECTION('axis',(0.,0.,1.));
#1262=DIRECTION('refdir',(1.,0.,0.));
#1263=DIRECTION('center_axis',(-1.,0.,2.22044604925E-16));
#1264=DIRECTION('ref_axis',(-2.22044604925E-16,0.,-1.));
#1265=DIRECTION('center_axis',(1.,0.,-2.22044604925E-16));
#1266=DIRECTION('ref_axis',(-2.22044604925E-16,0.,-1.));
#1267=DIRECTION('',(1.,0.,-2.22044604925E-16));
#1268=DIRECTION('center_axis',(1.,0.,-2.22044604925E-16));
#1269=DIRECTION('ref_axis',(-2.22044604925E-16,0.,-1.));
#1270=DIRECTION('center_axis',(1.,0.,-2.22044604925E-16));
#1271=DIRECTION('ref_axis',(-2.22044604925E-16,0.,-1.));
#1272=DIRECTION('center_axis',(1.,0.,-2.22044604925E-16));
#1273=DIRECTION('ref_axis',(-2.22044604925E-16,0.,-1.));
#1274=DIRECTION('center_axis',(1.,0.,-2.22044604925E-16));
#1275=DIRECTION('ref_axis',(-2.22044604925E-16,0.,-1.));
#1276=DIRECTION('center_axis',(1.,0.,-2.22044604925E-16));
#1277=DIRECTION('ref_axis',(-2.22044604925E-16,0.,-1.));
#1278=DIRECTION('center_axis',(-1.,0.,2.22044604925E-16));
#1279=DIRECTION('ref_axis',(-2.22044604925E-16,0.,-1.));
#1280=DIRECTION('',(-1.,0.,2.22044604925E-16));
#1281=DIRECTION('axis',(0.,0.,1.));
#1282=DIRECTION('refdir',(1.,0.,0.));
#1283=DIRECTION('center_axis',(-1.,0.,2.22044604925E-16));
#1284=DIRECTION('ref_axis',(-2.22044604925E-16,0.,-1.));
#1285=DIRECTION('center_axis',(1.,0.,-2.22044604925E-16));
#1286=DIRECTION('ref_axis',(-2.22044604925E-16,0.,-1.));
#1287=DIRECTION('',(1.,0.,-2.22044604925E-16));
#1288=DIRECTION('center_axis',(1.,0.,-2.22044604925E-16));
#1289=DIRECTION('ref_axis',(-2.22044604925E-16,0.,-1.));
#1290=DIRECTION('center_axis',(1.,0.,-2.22044604925E-16));
#1291=DIRECTION('ref_axis',(-2.22044604925E-16,0.,-1.));
#1292=DIRECTION('center_axis',(1.,0.,-2.22044604925E-16));
#1293=DIRECTION('ref_axis',(-2.22044604925E-16,0.,-1.));
#1294=DIRECTION('center_axis',(1.,0.,-2.22044604925E-16));
#1295=DIRECTION('ref_axis',(-2.22044604925E-16,0.,-1.));
#1296=DIRECTION('center_axis',(1.,0.,-2.22044604925E-16));
#1297=DIRECTION('ref_axis',(-2.22044604925E-16,0.,-1.));
#1298=DIRECTION('center_axis',(-1.,0.,2.22044604925E-16));
#1299=DIRECTION('ref_axis',(-2.22044604925E-16,0.,-1.));
#1300=DIRECTION('',(-1.,0.,2.22044604925E-16));
#1301=DIRECTION('',(0.,0.,1.));
#1302=DIRECTION('',(1.,0.,0.));
#1303=DIRECTION('',(0.,0.,1.));
#1304=DIRECTION('',(1.,0.,0.));
#1305=DIRECTION('',(0.,0.,1.));
#1306=DIRECTION('',(1.,0.,0.));
#1307=DIRECTION('',(0.,0.,1.));
#1308=DIRECTION('',(1.,0.,0.));
#1309=DIRECTION('',(0.,0.,1.));
#1310=DIRECTION('',(1.,0.,0.));
#1311=CARTESIAN_POINT('',(0.,0.,0.));
#1312=CARTESIAN_POINT('',(0.,0.,0.));
#1313=CARTESIAN_POINT('Origin',(-16.9266186306,746.,29.));
#1314=CARTESIAN_POINT('',(-16.9266186306,141.83151623283,29.));
#1315=CARTESIAN_POINT('',(-16.9266186306,141.83151623283,1.));
#1316=CARTESIAN_POINT('',(-16.9266186306,141.83151623283,29.5));
#1317=CARTESIAN_POINT('',(-16.9266186306,140.,29.));
#1318=CARTESIAN_POINT('',(-16.9266186306,746.,29.));
#1319=CARTESIAN_POINT('',(-16.9266186306,140.,1.));
#1320=CARTESIAN_POINT('',(-16.9266186306,140.,29.5));
#1321=CARTESIAN_POINT('',(-16.9266186306,746.,1.));
#1322=CARTESIAN_POINT('Origin',(51.073381369395,746.,29.));
#1323=CARTESIAN_POINT('',(51.073381369395,141.83151623283,29.));
#1324=CARTESIAN_POINT('',(51.573381369395,141.83151623283,29.));
#1325=CARTESIAN_POINT('',(51.073381369395,140.,29.));
#1326=CARTESIAN_POINT('',(51.073381369395,746.,29.));
#1327=CARTESIAN_POINT('',(16.571029146236,140.,29.));
#1328=CARTESIAN_POINT('Origin',(52.073381369395,746.,6.938893903907E-15));
#1329=CARTESIAN_POINT('',(-17.93132307692,140.,0.));
#1330=CARTESIAN_POINT('',(52.073381369395,140.,8.881784197001E-15));
#1331=CARTESIAN_POINT('',(17.071029146236,140.,2.22044604925E-15));
#1332=CARTESIAN_POINT('',(-17.93132307692,141.83151623283,0.));
#1333=CARTESIAN_POINT('',(-17.93132307692,746.,0.));
#1334=CARTESIAN_POINT('',(52.073381369395,141.83151623283,6.938893903907E-15));
#1335=CARTESIAN_POINT('',(52.073381369395,141.83151623283,6.661338147751E-15));
#1336=CARTESIAN_POINT('',(52.073381369395,746.,6.938893903907E-15));
#1337=CARTESIAN_POINT('Origin',(-16.9266186306,746.,1.));
#1338=CARTESIAN_POINT('',(51.073381369395,141.83151623283,1.));
#1339=CARTESIAN_POINT('',(17.573381369395,141.83151623283,1.));
#1340=CARTESIAN_POINT('',(51.073381369395,140.,1.));
#1341=CARTESIAN_POINT('',(-17.42897085376,140.,1.));
#1342=CARTESIAN_POINT('',(51.073381369395,746.,1.));
#1343=CARTESIAN_POINT('Origin',(51.073381369395,746.,1.));
#1344=CARTESIAN_POINT('',(51.073381369395,141.83151623283,15.5));
#1345=CARTESIAN_POINT('',(51.073381369395,140.,15.5));
#1346=CARTESIAN_POINT('Origin',(52.073381369395,746.,30.));
#1347=CARTESIAN_POINT('',(52.073381369395,140.,30.));
#1348=CARTESIAN_POINT('',(52.073381369395,140.,30.));
#1349=CARTESIAN_POINT('',(52.073381369395,141.83151623283,30.));
#1350=CARTESIAN_POINT('',(52.073381369395,141.83151623283,30.));
#1351=CARTESIAN_POINT('',(52.073381369395,746.,30.));
#1352=CARTESIAN_POINT('Origin',(-17.93132307692,746.,30.));
#1353=CARTESIAN_POINT('',(-17.93132307692,140.,30.));
#1354=CARTESIAN_POINT('',(-17.93132307692,140.,30.));
#1355=CARTESIAN_POINT('',(-17.93132307692,141.83151623283,30.));
#1356=CARTESIAN_POINT('',(17.071029146236,141.83151623283,30.));
#1357=CARTESIAN_POINT('',(-17.93132307692,746.,30.));
#1358=CARTESIAN_POINT('Origin',(-17.93132307692,746.,0.));
#1359=CARTESIAN_POINT('',(-17.93132307692,140.,15.));
#1360=CARTESIAN_POINT('',(-17.93132307692,141.83151623283,15.));
#1361=CARTESIAN_POINT('Origin',(52.073381369395,141.83151623283,30.));
#1362=CARTESIAN_POINT('Origin',(-17.93132307692,140.,30.));
#1363=CARTESIAN_POINT('Origin',(-17.93132307692,140.,30.));
#1364=CARTESIAN_POINT('',(-17.93132307692,140.,0.));
#1365=CARTESIAN_POINT('',(52.073381369395,140.,8.881784197001E-15));
#1366=CARTESIAN_POINT('',(17.071029146236,140.,2.22044604925E-15));
#1367=CARTESIAN_POINT('',(-17.93132307692,140.,30.));
#1368=CARTESIAN_POINT('',(-17.93132307692,140.,15.));
#1369=CARTESIAN_POINT('',(52.073381369395,140.,30.));
#1370=CARTESIAN_POINT('',(-17.93132307692,140.,30.));
#1371=CARTESIAN_POINT('',(52.073381369395,140.,30.));
#1372=CARTESIAN_POINT('',(51.073381369395,140.,1.));
#1373=CARTESIAN_POINT('',(-16.9266186306,140.,1.));
#1374=CARTESIAN_POINT('',(-17.42897085376,140.,1.));
#1375=CARTESIAN_POINT('',(51.073381369395,140.,29.));
#1376=CARTESIAN_POINT('',(51.073381369395,140.,15.5));
#1377=CARTESIAN_POINT('',(-16.9266186306,140.,29.));
#1378=CARTESIAN_POINT('',(16.571029146236,140.,29.));
#1379=CARTESIAN_POINT('',(-16.9266186306,140.,29.5));
#1380=CARTESIAN_POINT('Origin',(52.073381369395,746.,6.938893903907E-15));
#1381=CARTESIAN_POINT('',(52.073381369395,0.,6.938893903907E-15));
#1382=CARTESIAN_POINT('',(52.073381369395,746.,6.938893903907E-15));
#1383=CARTESIAN_POINT('',(-17.93132307692,0.,0.));
#1384=CARTESIAN_POINT('',(52.073381369395,0.,6.938893903907E-15));
#1385=CARTESIAN_POINT('',(-17.93132307692,746.,0.));
#1386=CARTESIAN_POINT('Origin',(-16.9266186306,746.,29.));
#1387=CARTESIAN_POINT('',(-16.9266186306,0.,29.));
#1388=CARTESIAN_POINT('',(-16.9266186306,746.,29.));
#1389=CARTESIAN_POINT('',(-16.9266186306,0.,1.));
#1390=CARTESIAN_POINT('',(-16.9266186306,0.,29.));
#1391=CARTESIAN_POINT('',(-16.9266186306,746.,1.));
#1392=CARTESIAN_POINT('Origin',(51.073381369395,746.,29.));
#1393=CARTESIAN_POINT('',(51.073381369395,0.,29.));
#1394=CARTESIAN_POINT('',(51.073381369395,746.,29.));
#1395=CARTESIAN_POINT('',(51.073381369395,0.,29.));
#1396=CARTESIAN_POINT('Origin',(51.073381369395,746.,1.));
#1397=CARTESIAN_POINT('',(51.073381369395,0.,1.));
#1398=CARTESIAN_POINT('',(51.073381369395,746.,1.));
#1399=CARTESIAN_POINT('',(51.073381369395,0.,1.));
#1400=CARTESIAN_POINT('Origin',(-16.9266186306,746.,1.));
#1401=CARTESIAN_POINT('',(-16.9266186306,0.,1.));
#1402=CARTESIAN_POINT('Origin',(52.073381369395,746.,30.));
#1403=CARTESIAN_POINT('',(52.073381369395,0.,30.));
#1404=CARTESIAN_POINT('',(52.073381369395,746.,30.));
#1405=CARTESIAN_POINT('',(52.073381369395,0.,30.));
#1406=CARTESIAN_POINT('Origin',(-17.93132307692,746.,0.));
#1407=CARTESIAN_POINT('',(-17.93132307692,0.,30.));
#1408=CARTESIAN_POINT('',(-17.93132307692,0.,0.));
#1409=CARTESIAN_POINT('',(-17.93132307692,746.,30.));
#1410=CARTESIAN_POINT('Origin',(-17.93132307692,746.,30.));
#1411=CARTESIAN_POINT('',(-17.93132307692,0.,30.));
#1412=CARTESIAN_POINT('Origin',(0.,0.,0.));
#1413=CARTESIAN_POINT('Origin',(-17.93132307692,746.,30.));
#1414=CARTESIAN_POINT('',(14.068676923077,198.,30.));
#1415=CARTESIAN_POINT('',(16.568676923077,205.5,30.));
#1416=CARTESIAN_POINT('',(97.1686769230772,447.3,30.));
#1417=CARTESIAN_POINT('',(14.068676923077,213.,30.));
#1418=CARTESIAN_POINT('',(-64.9813230769229,450.15,30.));
#1419=CARTESIAN_POINT('',(14.068676923077,479.5,30.));
#1420=CARTESIAN_POINT('Origin',(-17.93132307692,746.,30.));
#1421=CARTESIAN_POINT('',(19.068676923077,213.,30.));
#1422=CARTESIAN_POINT('',(97.1686769230772,447.3,30.));
#1423=CARTESIAN_POINT('',(19.068676923077,198.,30.));
#1424=CARTESIAN_POINT('',(-64.9813230769229,450.15,30.));
#1425=CARTESIAN_POINT('',(19.068676923077,472.,30.));
#1426=CARTESIAN_POINT('Origin',(-17.93132307692,746.,30.));
#1427=CARTESIAN_POINT('',(-1.931323076923,198.,30.));
#1428=CARTESIAN_POINT('Origin',(52.073381369395,711.00001059472,17.00000025332));
#1429=CARTESIAN_POINT('',(52.073381369395,707.00001053512,17.00000025332));
#1430=CARTESIAN_POINT('Origin',(52.073381369395,711.00001059472,17.00000025332));
#1431=CARTESIAN_POINT('',(51.073381369395,707.00001053512,17.00000025332));
#1432=CARTESIAN_POINT('',(52.073381369395,707.000010535115,17.00000025332));
#1433=CARTESIAN_POINT('Origin',(51.073381369395,711.00001059472,17.00000025332));
#1434=CARTESIAN_POINT('Origin',(52.073381369395,711.00001059472,17.00000025332));
#1435=CARTESIAN_POINT('',(-16.9266186306,707.00001053512,17.00000025332));
#1436=CARTESIAN_POINT('Origin',(-16.9266186306,711.00001059472,17.00000025332));
#1437=CARTESIAN_POINT('',(-17.93132307692,707.00001053512,17.00000025332));
#1438=CARTESIAN_POINT('',(52.073381369395,707.000010535115,17.00000025332));
#1439=CARTESIAN_POINT('Origin',(-17.93132307692,711.00001059472,17.00000025332));
#1440=CARTESIAN_POINT('Origin',(-17.93132307692,746.,30.));
#1441=CARTESIAN_POINT('',(0.568676923077,213.,30.));
#1442=CARTESIAN_POINT('Origin',(52.073381369395,141.83151623283,30.));
#1443=CARTESIAN_POINT('',(52.073381369395,141.83151623283,6.938893903907E-15));
#1444=CARTESIAN_POINT('',(-17.93132307692,141.83151623283,0.));
#1445=CARTESIAN_POINT('',(52.073381369395,141.83151623283,6.661338147751E-15));
#1446=CARTESIAN_POINT('',(52.073381369395,141.83151623283,30.));
#1447=CARTESIAN_POINT('',(52.073381369395,141.83151623283,30.));
#1448=CARTESIAN_POINT('',(-17.93132307692,141.83151623283,30.));
#1449=CARTESIAN_POINT('',(17.071029146236,141.83151623283,30.));
#1450=CARTESIAN_POINT('',(-17.93132307692,141.83151623283,15.));
#1451=CARTESIAN_POINT('',(-16.9266186306,141.83151623283,1.));
#1452=CARTESIAN_POINT('',(51.073381369395,141.83151623283,1.));
#1453=CARTESIAN_POINT('',(17.573381369395,141.83151623283,1.));
#1454=CARTESIAN_POINT('',(-16.9266186306,141.83151623283,29.));
#1455=CARTESIAN_POINT('',(-16.9266186306,141.83151623283,29.5));
#1456=CARTESIAN_POINT('',(51.073381369395,141.83151623283,29.));
#1457=CARTESIAN_POINT('',(51.573381369395,141.83151623283,29.));
#1458=CARTESIAN_POINT('',(51.073381369395,141.83151623283,15.5));
#1459=CARTESIAN_POINT('Origin',(-17.93132307692,746.,0.));
#1460=CARTESIAN_POINT('',(-17.93132307692,746.,30.));
#1461=CARTESIAN_POINT('',(-17.93132307692,746.,30.));
#1462=CARTESIAN_POINT('',(-17.93132307692,746.,0.));
#1463=CARTESIAN_POINT('',(-17.93132307692,746.,0.));
#1464=CARTESIAN_POINT('',(-17.93132307692,746.,0.));
#1465=CARTESIAN_POINT('Origin',(52.073381369395,746.,6.938893903907E-15));
#1466=CARTESIAN_POINT('',(52.073381369395,746.,6.938893903907E-15));
#1467=CARTESIAN_POINT('',(52.073381369395,746.,6.938893903907E-15));
#1468=CARTESIAN_POINT('',(52.073381369395,746.,6.938893903907E-15));
#1469=CARTESIAN_POINT('Origin',(-17.93132307692,746.,30.));
#1470=CARTESIAN_POINT('',(52.073381369395,746.,30.));
#1471=CARTESIAN_POINT('',(52.073381369395,746.,30.));
#1472=CARTESIAN_POINT('',(-17.93132307692,746.,30.));
#1473=CARTESIAN_POINT('Origin',(52.073381369395,746.,30.));
#1474=CARTESIAN_POINT('',(52.073381369395,746.,30.));
#1475=CARTESIAN_POINT('Origin',(-16.9266186306,746.,29.));
#1476=CARTESIAN_POINT('',(-16.9266186306,746.,1.));
#1477=CARTESIAN_POINT('',(-16.9266186306,746.,1.));
#1478=CARTESIAN_POINT('',(-16.9266186306,746.,29.));
#1479=CARTESIAN_POINT('',(-16.9266186306,746.,29.));
#1480=CARTESIAN_POINT('',(-16.9266186306,746.,29.));
#1481=CARTESIAN_POINT('Origin',(51.073381369395,746.,29.));
#1482=CARTESIAN_POINT('',(51.073381369395,746.,29.));
#1483=CARTESIAN_POINT('',(51.073381369395,746.,29.));
#1484=CARTESIAN_POINT('',(51.073381369395,746.,29.));
#1485=CARTESIAN_POINT('Origin',(0.,746.,0.));
#1486=CARTESIAN_POINT('',(51.073381369395,746.,1.));
#1487=CARTESIAN_POINT('',(-16.9266186306,746.,1.));
#1488=CARTESIAN_POINT('',(51.073381369395,746.,1.));
#1489=CARTESIAN_POINT('Origin',(-16.9266186306,746.,1.));
#1490=CARTESIAN_POINT('',(51.073381369395,746.,1.));
#1491=CARTESIAN_POINT('Origin',(51.073381369395,746.,1.));
#1492=CARTESIAN_POINT('',(0.,0.,0.));
#1493=CARTESIAN_POINT('Origin',(-22.93132307692,711.00001059472,17.00000025332));
#1494=CARTESIAN_POINT('',(-22.93132307692,711.00001059472,21.00000025332));
#1495=CARTESIAN_POINT('Origin',(-22.93132307692,711.00001059472,17.00000025332));
#1496=CARTESIAN_POINT('',(65.573381369395,711.00001059472,21.00000025332));
#1497=CARTESIAN_POINT('',(-22.93132307692,711.00001059472,21.00000025332));
#1498=CARTESIAN_POINT('Origin',(65.573381369395,711.00001059472,17.00000025332));
#1499=CARTESIAN_POINT('Origin',(-22.93132307692,711.00001059472,17.00000025332));
#1500=CARTESIAN_POINT('',(-22.93132307692,711.00001059472,23.50000025332));
#1501=CARTESIAN_POINT('Origin',(-22.93132307692,711.00001059472,17.00000025332));
#1502=CARTESIAN_POINT('Origin',(65.573381369395,711.00001059472,17.00000025332));
#1503=CARTESIAN_POINT('Origin',(-28.23132307692,711.00001059472,17.00000025332));
#1504=CARTESIAN_POINT('',(-28.23132307692,711.00001059472,23.50000025332));
#1505=CARTESIAN_POINT('Origin',(-28.23132307692,711.00001059472,17.00000025332));
#1506=CARTESIAN_POINT('',(-28.23132307692,711.00001059472,23.50000025332));
#1507=CARTESIAN_POINT('Origin',(-28.23132307692,711.00001059472,17.00000025332));
#1508=CARTESIAN_POINT('',(0.,0.,0.));
#1509=CARTESIAN_POINT('Origin',(-19.93132307692,711.00001059472,17.00000025332));
#1510=CARTESIAN_POINT('',(-19.93132307692,711.00001059472,25.00000025332));
#1511=CARTESIAN_POINT('Origin',(-19.93132307692,711.00001059472,17.00000025332));
#1512=CARTESIAN_POINT('',(-17.93132307692,711.00001059472,25.00000025332));
#1513=CARTESIAN_POINT('',(-19.93132307692,711.00001059472,25.00000025332));
#1514=CARTESIAN_POINT('Origin',(-17.93132307692,711.00001059472,17.00000025332));
#1515=CARTESIAN_POINT('Origin',(-19.93132307692,711.00001059472,17.00000025332));
#1516=CARTESIAN_POINT('',(-19.93132307692,711.00001059472,21.20000025332));
#1517=CARTESIAN_POINT('Origin',(-19.93132307692,711.00001059472,17.00000025332));
#1518=CARTESIAN_POINT('Origin',(-17.93132307692,711.00001059472,17.00000025332));
#1519=CARTESIAN_POINT('',(-17.93132307692,711.00001059472,21.20000025332));
#1520=CARTESIAN_POINT('Origin',(-17.93132307692,711.00001059472,17.00000025332));
#1521=CARTESIAN_POINT('Origin',(-19.93132307692,711.00001059472,17.00000025332));
#1522=CARTESIAN_POINT('',(-19.93132307692,711.00001059472,21.20000025332));
#1523=CARTESIAN_POINT('',(0.,0.,0.));
#1524=CARTESIAN_POINT('Origin',(52.073381369395,711.00001059472,17.00000025332));
#1525=CARTESIAN_POINT('',(52.073381369395,711.00001059472,25.00000025332));
#1526=CARTESIAN_POINT('Origin',(52.073381369395,711.00001059472,17.00000025332));
#1527=CARTESIAN_POINT('',(54.073381369395,711.00001059472,25.00000025332));
#1528=CARTESIAN_POINT('',(52.073381369395,711.00001059472,25.00000025332));
#1529=CARTESIAN_POINT('Origin',(54.073381369395,711.00001059472,17.00000025332));
#1530=CARTESIAN_POINT('Origin',(52.073381369395,711.00001059472,17.00000025332));
#1531=CARTESIAN_POINT('',(52.073381369395,711.00001059472,21.20000025332));
#1532=CARTESIAN_POINT('Origin',(52.073381369395,711.00001059472,17.00000025332));
#1533=CARTESIAN_POINT('Origin',(54.073381369395,711.00001059472,17.00000025332));
#1534=CARTESIAN_POINT('',(54.073381369395,711.00001059472,21.20000025332));
#1535=CARTESIAN_POINT('Origin',(54.073381369395,711.00001059472,17.00000025332));
#1536=CARTESIAN_POINT('Origin',(52.073381369395,711.00001059472,17.00000025332));
#1537=CARTESIAN_POINT('',(52.073381369395,711.00001059472,21.20000025332));
#1538=CARTESIAN_POINT('',(0.,0.,0.));
#1539=CARTESIAN_POINT('Origin',(57.073381369395,711.00001059472,17.00000025332));
#1540=CARTESIAN_POINT('',(57.073381369395,711.00001059472,23.50000025332));
#1541=CARTESIAN_POINT('Origin',(57.073381369395,711.00001059472,17.00000025332));
#1542=CARTESIAN_POINT('',(63.573381369395,711.00001059472,23.50000025332));
#1543=CARTESIAN_POINT('',(57.073381369395,711.00001059472,23.50000025332));
#1544=CARTESIAN_POINT('Origin',(63.573381369395,711.00001059472,17.00000025332));
#1545=CARTESIAN_POINT('Origin',(57.073381369395,711.00001059472,17.00000025332));
#1546=CARTESIAN_POINT('',(57.073381369395,711.00001059472,21.00000025332));
#1547=CARTESIAN_POINT('Origin',(57.073381369395,711.00001059472,17.00000025332));
#1548=CARTESIAN_POINT('Origin',(63.573381369395,711.00001059472,17.00000025332));
#1549=CARTESIAN_POINT('',(63.573381369395,711.00001059472,21.00000025332));
#1550=CARTESIAN_POINT('Origin',(63.573381369395,711.00001059472,17.00000025332));
#1551=CARTESIAN_POINT('Origin',(57.073381369395,711.00001059472,17.00000025332));
#1552=CARTESIAN_POINT('',(57.073381369395,711.00001059472,21.00000025332));
#1553=CARTESIAN_POINT('',(0.,0.,0.));
#1554=CARTESIAN_POINT('',(0.,0.,0.));
#1555=CARTESIAN_POINT('',(0.,0.,0.));
#1556=CARTESIAN_POINT('',(0.,0.,0.));
#1557=CARTESIAN_POINT('',(0.,0.,0.));
#1558=UNCERTAINTY_MEASURE_WITH_UNIT(LENGTH_MEASURE(0.01),#1572,
'DISTANCE_ACCURACY_VALUE',
'Maximum model space distance between geometric entities at asserted c
onnectivities');
#1559=UNCERTAINTY_MEASURE_WITH_UNIT(LENGTH_MEASURE(0.01),#1572,
'DISTANCE_ACCURACY_VALUE',
'Maximum model space distance between geometric entities at asserted c
onnectivities');
#1560=UNCERTAINTY_MEASURE_WITH_UNIT(LENGTH_MEASURE(0.01),#1572,
'DISTANCE_ACCURACY_VALUE',
'Maximum model space distance between geometric entities at asserted c
onnectivities');
#1561=UNCERTAINTY_MEASURE_WITH_UNIT(LENGTH_MEASURE(0.01),#1572,
'DISTANCE_ACCURACY_VALUE',
'Maximum model space distance between geometric entities at asserted c
onnectivities');
#1562=UNCERTAINTY_MEASURE_WITH_UNIT(LENGTH_MEASURE(0.01),#1572,
'DISTANCE_ACCURACY_VALUE',
'Maximum model space distance between geometric entities at asserted c
onnectivities');
#1563=UNCERTAINTY_MEASURE_WITH_UNIT(LENGTH_MEASURE(0.01),#1572,
'DISTANCE_ACCURACY_VALUE',
'Maximum model space distance between geometric entities at asserted c
onnectivities');
#1564=UNCERTAINTY_MEASURE_WITH_UNIT(LENGTH_MEASURE(0.01),#1572,
'DISTANCE_ACCURACY_VALUE',
'Maximum model space distance between geometric entities at asserted c
onnectivities');
#1565=(
GEOMETRIC_REPRESENTATION_CONTEXT(3)
GLOBAL_UNCERTAINTY_ASSIGNED_CONTEXT((#1558))
GLOBAL_UNIT_ASSIGNED_CONTEXT((#1572,#1574,#1575))
REPRESENTATION_CONTEXT('','3D')
);
#1566=(
GEOMETRIC_REPRESENTATION_CONTEXT(3)
GLOBAL_UNCERTAINTY_ASSIGNED_CONTEXT((#1559))
GLOBAL_UNIT_ASSIGNED_CONTEXT((#1572,#1574,#1575))
REPRESENTATION_CONTEXT('','3D')
);
#1567=(
GEOMETRIC_REPRESENTATION_CONTEXT(3)
GLOBAL_UNCERTAINTY_ASSIGNED_CONTEXT((#1560))
GLOBAL_UNIT_ASSIGNED_CONTEXT((#1572,#1574,#1575))
REPRESENTATION_CONTEXT('','3D')
);
#1568=(
GEOMETRIC_REPRESENTATION_CONTEXT(3)
GLOBAL_UNCERTAINTY_ASSIGNED_CONTEXT((#1561))
GLOBAL_UNIT_ASSIGNED_CONTEXT((#1572,#1574,#1575))
REPRESENTATION_CONTEXT('','3D')
);
#1569=(
GEOMETRIC_REPRESENTATION_CONTEXT(3)
GLOBAL_UNCERTAINTY_ASSIGNED_CONTEXT((#1562))
GLOBAL_UNIT_ASSIGNED_CONTEXT((#1572,#1574,#1575))
REPRESENTATION_CONTEXT('','3D')
);
#1570=(
GEOMETRIC_REPRESENTATION_CONTEXT(3)
GLOBAL_UNCERTAINTY_ASSIGNED_CONTEXT((#1563))
GLOBAL_UNIT_ASSIGNED_CONTEXT((#1572,#1574,#1575))
REPRESENTATION_CONTEXT('','3D')
);
#1571=(
GEOMETRIC_REPRESENTATION_CONTEXT(3)
GLOBAL_UNCERTAINTY_ASSIGNED_CONTEXT((#1564))
GLOBAL_UNIT_ASSIGNED_CONTEXT((#1572,#1574,#1575))
REPRESENTATION_CONTEXT('','3D')
);
#1572=(
LENGTH_UNIT()
NAMED_UNIT(*)
SI_UNIT(.MILLI.,.METRE.)
);
#1573=(
LENGTH_UNIT()
NAMED_UNIT(*)
SI_UNIT($,.METRE.)
);
#1574=(
NAMED_UNIT(*)
PLANE_ANGLE_UNIT()
SI_UNIT($,.RADIAN.)
);
#1575=(
NAMED_UNIT(*)
SI_UNIT($,.STERADIAN.)
SOLID_ANGLE_UNIT()
);
#1576=SHAPE_DEFINITION_REPRESENTATION(#1582,#1593);
#1577=SHAPE_DEFINITION_REPRESENTATION(#1583,#1594);
#1578=SHAPE_DEFINITION_REPRESENTATION(#1584,#1595);
#1579=SHAPE_DEFINITION_REPRESENTATION(#1585,#1596);
#1580=SHAPE_DEFINITION_REPRESENTATION(#1586,#1597);
#1581=SHAPE_DEFINITION_REPRESENTATION(#1587,#1598);
#1582=PRODUCT_DEFINITION_SHAPE('',$,#1600);
#1583=PRODUCT_DEFINITION_SHAPE('',$,#1601);
#1584=PRODUCT_DEFINITION_SHAPE('',$,#1602);
#1585=PRODUCT_DEFINITION_SHAPE('',$,#1603);
#1586=PRODUCT_DEFINITION_SHAPE('',$,#1604);
#1587=PRODUCT_DEFINITION_SHAPE('',$,#1605);
#1588=PRODUCT_DEFINITION_SHAPE($,$,#26);
#1589=PRODUCT_DEFINITION_SHAPE($,$,#27);
#1590=PRODUCT_DEFINITION_SHAPE($,$,#28);
#1591=PRODUCT_DEFINITION_SHAPE($,$,#29);
#1592=PRODUCT_DEFINITION_SHAPE($,$,#30);
#1593=SHAPE_REPRESENTATION('',(#969,#1048,#1049,#1050,#1051,#1052),#1565);
#1594=SHAPE_REPRESENTATION('',(#970),#1566);
#1595=SHAPE_REPRESENTATION('',(#1011),#1567);
#1596=SHAPE_REPRESENTATION('',(#1021),#1568);
#1597=SHAPE_REPRESENTATION('',(#1030),#1569);
#1598=SHAPE_REPRESENTATION('',(#1039),#1570);
#1599=PRODUCT_DEFINITION_CONTEXT('part definition',#1619,'design');
#1600=PRODUCT_DEFINITION('Viga_FEM','VIGA_FEM v23',#1606,#1599);
#1601=PRODUCT_DEFINITION('Viga y galga - geometria original intacta',
'Viga y galga - geometria original intacta',#1607,#1599);
#1602=PRODUCT_DEFINITION('Tornillo','Tornillo',#1608,#1599);
#1603=PRODUCT_DEFINITION('Arandela_lado_cuerda','Arandela_lado_cuerda',
#1609,#1599);
#1604=PRODUCT_DEFINITION('Arandela_opuesta','Arandela_opuesta',#1610,#1599);
#1605=PRODUCT_DEFINITION('Tuerca_cierre_idealizada',
'Tuerca_cierre_idealizada',#1611,#1599);
#1606=PRODUCT_DEFINITION_FORMATION('',$,#1621);
#1607=PRODUCT_DEFINITION_FORMATION('',$,#1622);
#1608=PRODUCT_DEFINITION_FORMATION('',$,#1623);
#1609=PRODUCT_DEFINITION_FORMATION('',$,#1624);
#1610=PRODUCT_DEFINITION_FORMATION('',$,#1625);
#1611=PRODUCT_DEFINITION_FORMATION('',$,#1626);
#1612=PRODUCT_RELATED_PRODUCT_CATEGORY('VIGA_FEM v23','VIGA_FEM v23',(#1621));
#1613=PRODUCT_RELATED_PRODUCT_CATEGORY(
'Viga y galga - geometria original intacta',
'Viga y galga - geometria original intacta',(#1622));
#1614=PRODUCT_RELATED_PRODUCT_CATEGORY('Tornillo','Tornillo',(#1623));
#1615=PRODUCT_RELATED_PRODUCT_CATEGORY('Arandela_lado_cuerda',
'Arandela_lado_cuerda',(#1624));
#1616=PRODUCT_RELATED_PRODUCT_CATEGORY('Arandela_opuesta',
'Arandela_opuesta',(#1625));
#1617=PRODUCT_RELATED_PRODUCT_CATEGORY('Tuerca_cierre_idealizada',
'Tuerca_cierre_idealizada',(#1626));
#1618=APPLICATION_PROTOCOL_DEFINITION('international standard',
'automotive_design',2009,#1619);
#1619=APPLICATION_CONTEXT(
'Core Data for Automotive Mechanical Design Process');
#1620=PRODUCT_CONTEXT('part definition',#1619,'mechanical');
#1621=PRODUCT('Viga_FEM','VIGA_FEM v23','FreeCAD Model',(#1620));
#1622=PRODUCT('Viga y galga - geometria original intacta',
'Viga y galga - geometria original intacta',$,(#1620));
#1623=PRODUCT('Tornillo','Tornillo',$,(#1620));
#1624=PRODUCT('Arandela_lado_cuerda','Arandela_lado_cuerda',$,(#1620));
#1625=PRODUCT('Arandela_opuesta','Arandela_opuesta',$,(#1620));
#1626=PRODUCT('Tuerca_cierre_idealizada','Tuerca_cierre_idealizada',$,(#1620));
#1627=PRESENTATION_STYLE_ASSIGNMENT((#1628));
#1628=SURFACE_STYLE_USAGE(.BOTH.,#1629);
#1629=SURFACE_SIDE_STYLE('',(#1630));
#1630=SURFACE_STYLE_FILL_AREA(#1631);
#1631=FILL_AREA_STYLE('Acero - Satinado',(#1632));
#1632=FILL_AREA_STYLE_COLOUR('Acero - Satinado',#1633);
#1633=COLOUR_RGB('Acero - Satinado',0.627450980392157,0.627450980392157,
0.627450980392157);
ENDSEC;
END-ISO-10303-21;
